<?xml version="1.0" standalone="no"?>
<!DOCTYPE svg PUBLIC "-//W3C//DTD SVG 1.1//EN" "http://www.w3.org/Graphics/SVG/1.1/DTD/svg11.dtd" >
<svg xmlns="http://www.w3.org/2000/svg" xmlns:xlink="http://www.w3.org/1999/xlink" version="1.1">
<metadata>
Created by FontForge 20141024 at Thu Mar 26 16:12:00 2015
 By System Administrator

</metadata>
<defs>
<font id="DINOT-MediumItalic" horiz-adv-x="506" >
  <font-face 
    font-family="DINOT-MediumItalic"
    font-weight="500"
    font-style="italic"
    font-stretch="normal"
    units-per-em="1000"
    panose-1="2 11 6 4 2 1 1 2 1 2"
    ascent="764"
    descent="-236"
    x-height="507"
    cap-height="712"
    bbox="-154 -227 1099 992"
    underline-thickness="66"
    underline-position="-69"
    slope="-11.31"
    stemh="86"
    stemv="96"
    unicode-range="U+000D-FEFF"
  />
<missing-glyph horiz-adv-x="540" 
d="M27 0v712h486v-712h-486zM93 66h354v580h-354v-580z" />
    <glyph glyph-name=".notdef" horiz-adv-x="540" 
d="M27 0v712h486v-712h-486zM93 66h354v580h-354v-580z" />
    <glyph glyph-name=".null" horiz-adv-x="0" 
 />
    <glyph glyph-name=".null" horiz-adv-x="0" 
 />
    <glyph glyph-name="CR" unicode="&#xd;" horiz-adv-x="228" 
 />
    <glyph glyph-name="space" unicode=" " horiz-adv-x="228" 
 />
    <glyph glyph-name="exclam" unicode="!" horiz-adv-x="315" 
d="M323 712l-120 -503h-76l79 503h117zM201 109l-22 -109h-107l22 109h107z" />
    <glyph glyph-name="quotedbl" unicode="&#x22;" horiz-adv-x="422" 
d="M440 712l-38 -191h-96l39 191h95zM262 712l-38 -191h-96l39 191h95z" />
    <glyph glyph-name="numbersign" unicode="#" horiz-adv-x="646" 
d="M652 518l-18 -88h-87l-46 -132h79l-18 -88h-92l-73 -210h-103l74 210h-133l-74 -210h-102l73 210h-75l18 88h88l47 132h-81l18 88h93l69 198h103l-70 -198h134l68 198h103l-69 -198h74zM445 430h-133l-47 -132h133z" />
    <glyph glyph-name="dollar" unicode="$" horiz-adv-x="581" 
d="M584 633l-73 -63c-30 36 -67 54 -119 57l-43 -225l26 -6c111 -26 157 -81 157 -175c0 -153 -127 -220 -251 -227l-21 -108h-77l21 110c-88 5 -145 33 -198 97l75 66c38 -46 84 -70 148 -73l44 231l-28 7c-106 27 -144 90 -144 161c0 111 78 223 239 233l17 88h77l-17 -90
c67 -6 124 -32 167 -83zM429 210c0 66 -39 84 -98 96l-41 -221c80 10 139 58 139 125zM332 628c-77 -9 -129 -67 -129 -132c0 -53 43 -73 88 -83z" />
    <glyph glyph-name="percent" unicode="%" horiz-adv-x="808" 
d="M750 260c0 -11 -2 -26 -4 -36l-19 -95c-18 -89 -68 -135 -153 -135c-57 0 -116 29 -116 107c0 11 2 26 4 36l19 95c18 89 68 135 153 135c57 0 116 -29 116 -107zM677 252c0 28 -12 51 -51 51c-44 0 -65 -31 -73 -71l-19 -95c-2 -10 -3 -20 -3 -28c0 -28 12 -51 51 -51
c44 0 65 31 73 71l19 95c2 10 3 20 3 28zM695 712l-460 -712h-80l460 712h80zM391 611c0 -11 -2 -26 -4 -36l-19 -95c-18 -89 -68 -135 -153 -135c-57 0 -116 29 -116 107c0 11 2 26 4 36l19 95c18 89 68 135 153 135c57 0 116 -29 116 -107zM318 603c0 28 -12 51 -51 51
c-44 0 -65 -31 -73 -71l-19 -95c-2 -10 -3 -20 -3 -28c0 -28 12 -51 51 -51c44 0 65 31 73 71l19 95c2 10 3 20 3 28z" />
    <glyph glyph-name="ampersand" unicode="&#x26;" horiz-adv-x="697" 
d="M627 356c-16 -88 -47 -156 -110 -219l88 -137h-119l-43 70c-41 -35 -112 -76 -203 -76c-99 0 -189 52 -189 173c0 123 77 184 181 247c-22 36 -45 76 -45 128c0 76 47 176 188 176c115 0 145 -81 145 -139c0 -59 -36 -109 -102 -150l-57 -36l107 -179c33 36 53 80 65 142
h94zM396 144l-122 199c-77 -46 -124 -90 -124 -164c0 -57 39 -98 99 -98c46 0 99 20 147 63zM426 576c0 39 -25 59 -57 59c-54 0 -83 -45 -83 -93c0 -24 12 -51 32 -83l37 23c41 25 71 50 71 94z" />
    <glyph glyph-name="quotesingle" unicode="'" horiz-adv-x="244" 
d="M262 712l-38 -191h-96l39 191h95z" />
    <glyph glyph-name="parenleft" unicode="(" horiz-adv-x="301" 
d="M341 734c-26 -22 -49 -43 -63 -62s-23 -42 -30 -76l-94 -466c-4 -21 -7 -42 -7 -59c0 -23 8 -54 47 -100l-74 -65c-59 70 -70 112 -70 154c0 17 3 42 9 74l93 468c8 38 16 75 42 112c22 32 57 63 92 92z" />
    <glyph glyph-name="parenright" unicode=")" horiz-adv-x="301" 
d="M292 652c0 -17 -3 -42 -9 -74l-93 -468c-8 -38 -16 -75 -42 -112c-22 -32 -57 -63 -92 -92l-55 72c26 22 49 43 63 62s23 42 30 76l94 466c4 21 7 42 7 59c0 23 -7 54 -46 100l73 65c59 -70 70 -112 70 -154z" />
    <glyph glyph-name="asterisk" unicode="*" horiz-adv-x="461" 
d="M467 552l-120 -37l96 -79l-46 -53l-91 86l-21 -124l-69 14l29 122l-117 -44l-23 66l120 36l-97 80l47 53l91 -86l20 124l69 -14l-28 -122l117 44z" />
    <glyph glyph-name="plus" unicode="+" 
d="M472 322l-18 -90h-159l-34 -170h-91l34 170h-159l18 90h159l34 171h91l-34 -171h159z" />
    <glyph glyph-name="comma" unicode="," horiz-adv-x="262" 
d="M161 116l-35 -176l-128 -95l54 271h109z" />
    <glyph glyph-name="hyphen" unicode="-" horiz-adv-x="405" 
d="M356 323l-18 -91h-277l17 91h278z" />
    <glyph glyph-name="period" unicode="." horiz-adv-x="264" 
d="M164 122l-24 -122h-116l24 122h116z" />
    <glyph glyph-name="slash" unicode="/" horiz-adv-x="363" 
d="M473 786l-442 -860h-96l443 860h95z" />
    <glyph glyph-name="zero" unicode="0" 
d="M505 555c0 -14 -2 -33 -5 -48l-61 -306c-32 -162 -141 -207 -228 -207c-94 0 -167 59 -167 163c0 14 2 33 5 48l61 306c32 162 141 207 228 207c94 0 167 -59 167 -163zM409 550c0 60 -40 82 -77 82c-50 0 -108 -28 -126 -119l-61 -311c-3 -13 -5 -27 -5 -40
c0 -60 40 -82 77 -82c50 0 108 28 126 119l61 311c3 13 5 27 5 40z" />
    <glyph glyph-name="one" unicode="1" 
d="M430 712l-143 -712h-96l120 600l-157 -116l22 114l157 114h97z" />
    <glyph glyph-name="two" unicode="2" 
d="M507 548c0 -82 -41 -132 -94 -187l-263 -275h276l-17 -86h-400l18 86l320 335c42 44 62 75 62 123c0 57 -30 88 -82 88c-54 0 -104 -30 -123 -111h-97c24 131 108 197 229 197c105 0 171 -61 171 -170z" />
    <glyph glyph-name="three" unicode="3" 
d="M496 557c0 -82 -37 -157 -117 -192c48 -23 70 -62 70 -129c0 -128 -94 -243 -234 -243c-122 0 -188 67 -188 163c0 11 0 21 2 32h95c-1 -8 -1 -12 -1 -21c0 -49 30 -87 92 -87c78 0 137 71 137 153c0 56 -30 89 -95 89h-17l16 84h18c74 0 125 69 125 142
c0 52 -30 84 -82 84c-55 0 -105 -39 -121 -102h-98c31 128 117 189 232 189c100 0 166 -67 166 -162z" />
    <glyph glyph-name="four" unicode="4" 
d="M467 200l-19 -90h-74l-22 -110h-93l22 110h-277l18 90l337 512h108l-337 -512h168l33 164h93l-33 -164h76z" />
    <glyph glyph-name="five" unicode="5" 
d="M529 712l-17 -86h-276l-39 -192c34 29 68 39 115 39c106 0 151 -73 151 -155c0 -26 -3 -56 -8 -81c-14 -72 -35 -138 -81 -184c-36 -37 -87 -60 -156 -60c-115 0 -169 72 -169 158c0 4 0 18 2 31h93c-1 -8 -1 -14 -1 -21c0 -46 24 -81 78 -81c86 0 119 69 136 157
c5 25 7 48 7 68c0 49 -17 86 -75 86c-52 0 -90 -25 -114 -66h-86l77 387h363z" />
    <glyph glyph-name="six" unicode="6" 
d="M449 229c0 -135 -94 -235 -218 -235c-136 0 -188 96 -188 184c0 68 23 116 78 199l222 335h106l-208 -311c15 5 28 9 48 9c98 0 160 -73 160 -181zM352 226c0 62 -35 105 -92 105c-83 0 -121 -82 -121 -146c0 -62 34 -105 91 -105c78 0 122 75 122 146z" />
    <glyph glyph-name="seven" unicode="7" 
d="M557 712l-17 -86l-345 -626h-107l346 626h-210l-21 -108h-93l38 194h409z" />
    <glyph glyph-name="eight" unicode="8" 
d="M507 545c0 -81 -47 -152 -116 -184c37 -27 65 -67 65 -137c0 -120 -82 -230 -238 -230c-99 0 -185 56 -185 178c0 89 43 161 130 202c-31 25 -56 62 -56 122c0 124 92 222 224 222c101 0 176 -67 176 -173zM358 225c0 58 -36 99 -94 99c-80 0 -134 -64 -134 -145
c0 -58 36 -99 94 -99c81 0 134 63 134 145zM410 544c0 50 -30 88 -85 88c-75 0 -121 -68 -121 -136c0 -50 29 -88 84 -88c75 0 122 68 122 136z" />
    <glyph glyph-name="nine" unicode="9" 
d="M506 534c0 -68 -23 -116 -78 -199l-222 -335h-106l209 311c-15 -5 -29 -9 -49 -9c-98 0 -159 73 -159 181c0 135 93 235 217 235c136 0 188 -96 188 -184zM410 527c0 62 -34 105 -91 105c-78 0 -121 -75 -121 -146c0 -62 34 -105 91 -105c83 0 121 82 121 146z" />
    <glyph glyph-name="colon" unicode=":" horiz-adv-x="288" 
d="M190 122l-25 -122h-115l24 122h116zM244 407l-24 -121h-116l25 121h115z" />
    <glyph glyph-name="semicolon" unicode=";" horiz-adv-x="288" 
d="M186 116l-35 -176l-129 -95l54 271h110zM245 407l-24 -121h-116l25 121h115z" />
    <glyph glyph-name="less" unicode="&#x3c;" 
d="M464 501l-21 -107l-262 -117l217 -122l-20 -98l-317 185l18 84z" />
    <glyph glyph-name="equal" unicode="=" 
d="M491 416l-18 -90h-409l18 90h409zM455 229l-18 -90h-409l18 90h409z" />
    <glyph glyph-name="greater" unicode="&#x3e;" 
d="M456 311l-17 -84l-385 -175l20 107l263 117l-218 122l20 98z" />
    <glyph glyph-name="question" unicode="?" horiz-adv-x="486" 
d="M504 565c0 -65 -27 -113 -71 -162l-96 -108c-13 -15 -24 -37 -28 -55l-7 -31h-97l8 38c8 38 20 66 51 100l95 105c29 32 48 63 48 105c0 41 -25 74 -74 74c-59 0 -101 -38 -114 -99h-98c23 124 110 186 226 186c82 0 157 -57 157 -153zM292 109l-21 -109h-107l21 109h107
z" />
    <glyph glyph-name="at" unicode="@" horiz-adv-x="700" 
d="M692 546c0 -18 -3 -49 -7 -68l-96 -478h-90l10 51c-39 -44 -77 -58 -126 -58c-94 0 -140 65 -140 139c0 28 4 59 13 102c18 89 34 144 77 188c36 37 85 53 133 53c55 0 91 -23 113 -58l13 67c3 17 6 32 6 45c0 28 -8 49 -22 66c-20 24 -48 35 -91 35h-120
c-47 0 -79 -11 -108 -36c-33 -28 -45 -62 -55 -110l-64 -316c-3 -16 -5 -32 -5 -49c0 -23 10 -42 31 -63l-74 -65c-38 40 -52 74 -52 113c0 19 4 47 7 62l63 317c17 87 42 136 81 173c40 38 101 59 178 59h143c69 0 116 -22 145 -56c27 -31 37 -72 37 -113zM553 313
c0 39 -16 81 -73 81c-79 0 -110 -60 -131 -160c-6 -28 -10 -55 -10 -78c0 -39 16 -81 73 -81c79 0 110 59 131 159c6 28 10 56 10 79z" />
    <glyph glyph-name="A" unicode="A" horiz-adv-x="594" 
d="M537 0h-105l-18 146h-268l-77 -146h-111l390 712h83zM405 231l-43 327l-173 -327h216z" />
    <glyph glyph-name="B" unicode="B" horiz-adv-x="630" 
d="M612 549c0 -63 -26 -145 -124 -187c47 -26 75 -63 75 -130c0 -139 -100 -232 -235 -232h-290l143 712h249c142 0 182 -89 182 -163zM459 228c0 55 -33 89 -93 89h-161l-45 -226h165c81 0 134 58 134 137zM508 536c0 40 -18 85 -94 85h-148l-43 -213h152
c88 0 133 65 133 128z" />
    <glyph glyph-name="C" unicode="C" horiz-adv-x="599" 
d="M594 503h-103c-1 73 -37 125 -112 125c-49 0 -85 -19 -115 -51c-34 -35 -50 -84 -78 -221c-15 -76 -22 -126 -22 -159c0 -71 52 -113 116 -113c84 0 136 61 159 125h106c-45 -140 -148 -215 -273 -215c-124 0 -211 79 -211 197c0 30 4 76 22 165c30 150 46 219 106 282
c50 53 122 80 195 80c141 0 210 -93 210 -215z" />
    <glyph glyph-name="D" unicode="D" horiz-adv-x="632" 
d="M613 516c0 -34 -4 -66 -21 -154c-33 -171 -55 -236 -118 -295c-48 -45 -115 -67 -191 -67h-245l143 712h227c108 0 205 -52 205 -196zM510 508c0 72 -40 114 -120 114h-124l-106 -532h122c47 0 89 13 124 45c36 33 57 88 83 227c16 83 21 118 21 146z" />
    <glyph glyph-name="E" unicode="E" horiz-adv-x="575" 
d="M613 712l-18 -90h-329l-43 -218h282l-18 -90h-282l-45 -224h335l-18 -90h-439l143 712h432z" />
    <glyph glyph-name="F" unicode="F" horiz-adv-x="556" 
d="M613 712l-18 -90h-329l-45 -226h282l-18 -91h-283l-61 -305h-103l143 712h432z" />
    <glyph glyph-name="G" unicode="G" horiz-adv-x="618" 
d="M598 502h-103c-2 77 -42 126 -114 126c-49 0 -85 -18 -116 -51c-37 -38 -52 -91 -79 -221c-15 -76 -22 -126 -22 -159c0 -71 53 -113 116 -113c69 0 149 50 172 168l8 45h-145l16 86h248l-20 -107c-17 -89 -44 -151 -94 -203c-47 -48 -113 -79 -192 -79
c-131 0 -212 83 -212 197c0 37 5 85 22 165c34 168 49 221 107 282c48 51 122 80 195 80c141 0 212 -92 213 -216z" />
    <glyph glyph-name="H" unicode="H" horiz-adv-x="656" 
d="M661 712l-143 -712h-103l63 315h-273l-64 -315h-103l143 712h103l-61 -307h274l61 307h103z" />
    <glyph glyph-name="I" unicode="I" horiz-adv-x="279" 
d="M284 712l-143 -712h-103l143 712h103z" />
    <glyph glyph-name="J" unicode="J" horiz-adv-x="481" 
d="M494 712l-98 -493c-34 -169 -148 -225 -251 -225c-80 0 -130 26 -166 71l74 64c24 -29 51 -45 95 -45c63 0 126 41 147 145l96 483h103z" />
    <glyph glyph-name="K" unicode="K" horiz-adv-x="629" 
d="M685 712l-275 -288l164 -424h-113l-133 355l-146 -145l-42 -210h-102l143 712h102l-71 -357l345 357h128z" />
    <glyph glyph-name="L" unicode="L" horiz-adv-x="548" 
d="M488 90l-18 -90h-432l143 712h103l-124 -622h328z" />
    <glyph glyph-name="M" unicode="M" horiz-adv-x="773" 
d="M778 712l-143 -712h-103l97 480l-223 -336h-76l-91 340l-97 -484h-104l143 712h98l110 -436l288 436h101z" />
    <glyph glyph-name="N" unicode="N" horiz-adv-x="686" 
d="M691 712l-143 -712h-90l-214 510l-103 -510h-103l143 712h91l214 -510l102 510h103z" />
    <glyph glyph-name="O" unicode="O" horiz-adv-x="614" 
d="M592 521c0 -31 -4 -76 -22 -165c-30 -149 -47 -220 -106 -282c-51 -54 -121 -80 -197 -80c-126 0 -206 83 -206 197c0 31 4 76 22 165c30 149 47 220 106 282c51 54 121 80 196 80c127 0 207 -83 207 -197zM489 513c0 76 -52 115 -110 115c-48 0 -85 -18 -116 -51
s-49 -81 -77 -221c-15 -76 -22 -124 -22 -157c0 -76 52 -115 110 -115c48 0 85 18 116 51s49 81 77 221c15 76 22 124 22 157z" />
    <glyph glyph-name="P" unicode="P" horiz-adv-x="598" 
d="M615 532c0 -131 -93 -245 -258 -245h-158l-58 -287h-103l143 712h247c126 0 187 -81 187 -180zM512 524c0 52 -26 97 -99 97h-147l-49 -244h144c95 0 151 70 151 147z" />
    <glyph glyph-name="Q" unicode="Q" horiz-adv-x="614" 
d="M592 521c0 -31 -4 -76 -22 -165c-28 -138 -45 -210 -94 -269l54 -70l-64 -56l-55 71c-42 -26 -92 -38 -144 -38c-126 0 -206 83 -206 197c0 31 4 76 22 165c30 149 47 220 106 282c51 54 121 80 196 80c127 0 207 -83 207 -197zM489 513c0 76 -52 115 -110 115
c-48 0 -85 -18 -116 -51s-49 -81 -77 -221c-15 -76 -22 -124 -22 -157c0 -76 52 -115 110 -115c31 0 57 7 81 22l-63 82l64 57l58 -76c18 34 33 87 53 187c15 76 22 124 22 157z" />
    <glyph glyph-name="R" unicode="R" horiz-adv-x="626" 
d="M615 534c0 -96 -61 -190 -177 -220l101 -314h-113l-91 304h-132l-62 -304h-103l143 712h248c139 0 186 -87 186 -178zM511 529c0 57 -32 92 -97 92h-148l-47 -231h149c99 0 143 76 143 139z" />
    <glyph glyph-name="S" unicode="S" horiz-adv-x="561" 
d="M564 634l-72 -63c-32 38 -71 58 -135 58c-96 0 -153 -67 -153 -133c0 -50 40 -72 89 -84l62 -15c113 -27 158 -79 158 -179c0 -150 -128 -224 -276 -224c-106 0 -172 28 -231 98l76 66c40 -50 91 -73 164 -73c92 0 164 53 164 126c0 62 -37 82 -88 94l-63 15
c-94 22 -158 77 -158 165c0 118 90 233 268 233c79 0 147 -25 195 -84z" />
    <glyph glyph-name="T" unicode="T" horiz-adv-x="532" 
d="M595 712l-18 -91h-184l-125 -621h-103l125 621h-188l19 91h474z" />
    <glyph glyph-name="U" unicode="U" horiz-adv-x="642" 
d="M656 712l-95 -473c-33 -165 -145 -245 -281 -245c-108 0 -208 68 -208 198c0 20 4 47 7 62l91 458h103l-93 -466c-2 -12 -5 -32 -5 -48c0 -56 31 -113 112 -113c83 0 152 56 174 166l92 461h103z" />
    <glyph glyph-name="V" unicode="V" horiz-adv-x="536" 
d="M623 712l-362 -712h-82l-82 712h102l56 -526l258 526h110z" />
    <glyph glyph-name="W" unicode="W" horiz-adv-x="831" 
d="M910 712l-314 -712h-89l-38 504l-241 -504h-89l-37 712h106l17 -515l240 515h82l36 -515l217 515h110z" />
    <glyph glyph-name="X" unicode="X" horiz-adv-x="553" 
d="M617 712l-262 -351l142 -361h-115l-100 277l-202 -277h-120l280 371l-131 341h115l89 -258l184 258h120z" />
    <glyph glyph-name="Y" unicode="Y" horiz-adv-x="521" 
d="M605 712l-284 -423l-58 -289h-103l59 294l-125 418h109l85 -319l204 319h113z" />
    <glyph glyph-name="Z" unicode="Z" horiz-adv-x="529" 
d="M570 712l-17 -82l-416 -539h315l-18 -91h-437l17 87l413 534h-299l18 91h424z" />
    <glyph glyph-name="bracketleft" unicode="[" horiz-adv-x="329" 
d="M391 786l-17 -86h-106l-138 -688h115l-17 -86h-211l171 860h203z" />
    <glyph glyph-name="backslash" unicode="\" horiz-adv-x="357" 
d="M292 -74h-88l-99 852h89z" />
    <glyph glyph-name="bracketright" unicode="]" horiz-adv-x="329" 
d="M354 786l-171 -860h-203l17 84h108l138 692h-117l17 84h211z" />
    <glyph glyph-name="asciicircum" unicode="^" horiz-adv-x="547" 
d="M514 401h-96l-67 215l-153 -215h-104l226 318h94z" />
    <glyph glyph-name="underscore" unicode="_" 
d="M436 -102l-13 -66h-506l13 66h506z" />
    <glyph glyph-name="grave" unicode="`" horiz-adv-x="508" 
d="M360 595h-77l-71 159h97z" />
    <glyph glyph-name="a" unicode="a" horiz-adv-x="505" 
d="M456 376c0 -12 -2 -29 -5 -42l-67 -334h-94l10 47c-33 -33 -73 -53 -133 -53c-84 0 -149 45 -149 129c0 46 15 88 46 119c39 39 90 53 148 53h134l9 41c2 9 3 19 3 30c0 41 -30 65 -87 65c-56 0 -92 -20 -123 -54l-53 65c43 45 96 71 186 71c78 0 175 -29 175 -137z
M333 227h-112c-65 0 -107 -37 -107 -96c0 -36 24 -57 81 -57c38 0 71 13 94 35c18 18 29 43 35 73z" />
    <glyph glyph-name="b" unicode="b" horiz-adv-x="526" 
d="M485 359c0 -21 -4 -59 -13 -105c-17 -92 -37 -163 -84 -210c-35 -35 -83 -50 -132 -50c-54 0 -99 19 -123 64l-11 -58h-95l142 712h97l-50 -256c23 28 61 57 127 57c84 0 142 -50 142 -154zM386 339c0 44 -13 88 -75 88c-87 0 -117 -75 -136 -173c-5 -28 -11 -63 -11 -86
c0 -44 14 -88 76 -88c87 0 116 76 135 174c5 28 11 62 11 85z" />
    <glyph glyph-name="c" unicode="c" horiz-adv-x="462" 
d="M457 440l-73 -63c-23 33 -48 50 -85 50c-32 0 -64 -13 -91 -41c-32 -33 -51 -83 -60 -132c-5 -25 -7 -46 -7 -71c0 -69 38 -103 90 -103c41 0 73 16 106 51l55 -70c-46 -44 -106 -67 -169 -67c-108 0 -179 71 -179 182c0 23 2 52 7 78c35 188 141 259 258 259
c72 0 117 -30 148 -73z" />
    <glyph glyph-name="d" unicode="d" horiz-adv-x="526" 
d="M541 712l-142 -712h-94l11 54c-40 -47 -86 -60 -133 -60c-108 0 -141 74 -141 150c0 32 6 70 14 110c19 96 40 165 83 208c39 39 84 51 133 51c46 0 93 -15 120 -62l52 261h97zM364 340c0 43 -14 87 -76 87c-87 0 -116 -75 -135 -173c-5 -28 -11 -63 -11 -87
c0 -43 13 -87 75 -87c87 0 117 76 136 174c5 28 11 62 11 86z" />
    <glyph glyph-name="e" unicode="e" horiz-adv-x="514" 
d="M470 336c0 -30 -6 -71 -15 -110h-314c-3 -16 -5 -32 -5 -49c0 -58 30 -101 97 -101c54 0 92 20 131 56l54 -64c-53 -50 -118 -74 -194 -74c-94 0 -181 51 -181 177c0 161 77 342 254 342c108 0 173 -74 173 -177zM377 336c0 65 -37 97 -85 97c-62 0 -113 -43 -139 -140
h220c2 15 4 27 4 43z" />
    <glyph glyph-name="f" unicode="f" horiz-adv-x="312" 
d="M378 717l-17 -82h-40c-35 0 -59 -19 -67 -61l-14 -67h97l-15 -74h-96l-87 -433h-97l87 433h-55l14 74h55l16 76c20 96 79 134 156 134h63z" />
    <glyph glyph-name="g" unicode="g" horiz-adv-x="522" 
d="M496 507l-100 -503c-33 -164 -140 -215 -241 -215c-72 0 -122 22 -162 69l68 59c19 -23 45 -46 95 -46c69 0 125 44 144 134l13 64c-29 -35 -67 -57 -126 -57c-83 0 -142 52 -142 149c0 25 4 59 12 102c17 93 38 156 80 198c39 39 86 52 133 52c51 0 95 -17 120 -64
l12 58h94zM361 342c0 55 -26 85 -76 85c-81 0 -113 -68 -131 -165c-6 -32 -10 -59 -10 -79c0 -48 17 -85 75 -85c80 0 114 69 132 165c6 32 10 59 10 79z" />
    <glyph glyph-name="h" unicode="h" horiz-adv-x="540" 
d="M487 371c0 -16 -2 -37 -5 -53l-64 -318h-97l62 311c3 15 5 28 5 40c0 52 -35 76 -76 76c-36 0 -106 -17 -126 -118l-62 -309h-97l142 712h97l-51 -252c33 33 78 53 136 53c70 0 136 -45 136 -142z" />
    <glyph glyph-name="i" unicode="i" horiz-adv-x="251" 
d="M226 507l-102 -507h-97l102 507h97zM268 708l-18 -88h-103l17 88h104z" />
    <glyph glyph-name="j" unicode="j" horiz-adv-x="251" 
d="M226 507l-116 -577c-18 -88 -70 -138 -155 -138h-64l16 83h39c39 0 61 22 69 64l114 568h97zM268 708l-18 -88h-103l17 88h104z" />
    <glyph glyph-name="k" unicode="k" horiz-adv-x="523" 
d="M530 507l-208 -204l135 -303h-111l-98 242l-93 -88l-31 -154h-97l142 712h97l-86 -437l232 232h118z" />
    <glyph glyph-name="l" unicode="l" horiz-adv-x="298" 
d="M263 712l-113 -567c-2 -12 -4 -17 -4 -27c0 -22 12 -36 47 -36h46l-17 -82h-60c-58 0 -113 31 -113 103c0 15 1 28 4 42l113 567h97z" />
    <glyph glyph-name="m" unicode="m" horiz-adv-x="833" 
d="M780 371c0 -17 -3 -38 -6 -53l-64 -318h-97l63 311c3 15 5 29 5 40c0 52 -35 76 -77 76c-35 0 -105 -17 -125 -118l-62 -309h-97l62 311c3 15 5 29 5 40c0 52 -35 76 -76 76c-35 0 -106 -17 -126 -118l-62 -309h-97l101 507h94l-10 -52c33 36 81 58 141 58
c46 0 92 -22 118 -74c38 44 85 74 168 74c74 0 142 -49 142 -142z" />
    <glyph glyph-name="n" unicode="n" horiz-adv-x="540" 
d="M487 371c0 -16 -2 -37 -5 -53l-64 -318h-97l62 311c3 15 5 28 5 40c0 52 -35 76 -76 76c-35 0 -106 -17 -126 -118l-62 -309h-97l101 507h94l-10 -52c33 36 81 58 141 58c68 0 134 -45 134 -142z" />
    <glyph glyph-name="o" unicode="o" horiz-adv-x="508" 
d="M464 346c0 -31 -5 -70 -9 -92c-22 -109 -50 -164 -93 -203c-41 -38 -91 -57 -151 -57c-83 0 -167 48 -167 167c0 31 5 71 9 93c22 109 50 163 93 202c41 38 91 57 151 57c83 0 167 -48 167 -167zM368 337c0 63 -35 90 -80 90c-30 0 -58 -12 -78 -32
c-27 -27 -45 -69 -60 -141c-8 -41 -10 -68 -10 -83c0 -64 36 -91 80 -91c30 0 58 12 78 32c27 27 45 67 60 142c8 41 10 67 10 83z" />
    <glyph glyph-name="p" unicode="p" horiz-adv-x="526" 
d="M485 364c0 -27 -2 -55 -13 -110c-19 -96 -41 -165 -84 -208c-39 -39 -83 -52 -132 -52c-46 0 -93 15 -120 62l-53 -261h-97l142 712h95l-12 -54c40 47 86 60 133 60c108 0 141 -74 141 -149zM386 340c0 43 -14 87 -76 87c-87 0 -116 -75 -135 -173
c-5 -28 -11 -63 -11 -87c0 -43 13 -87 75 -87c87 0 117 76 136 174c5 28 11 62 11 86z" />
    <glyph glyph-name="q" unicode="q" horiz-adv-x="526" 
d="M500 507l-142 -712h-97l50 256c-23 -28 -62 -57 -128 -57c-84 0 -141 50 -141 154c0 21 4 60 13 106c17 92 37 162 84 209c35 35 83 50 132 50c54 0 98 -19 122 -64l12 58h95zM363 339c0 44 -14 88 -76 88c-87 0 -116 -75 -135 -173c-5 -28 -11 -63 -11 -86
c0 -44 13 -88 75 -88c87 0 117 76 136 174c5 28 11 62 11 85z" />
    <glyph glyph-name="r" unicode="r" horiz-adv-x="415" 
d="M455 465l-81 -72c-11 14 -30 33 -64 33c-60 0 -110 -49 -124 -118l-62 -308h-97l101 507h95l-12 -56c30 38 80 62 136 62c48 0 81 -16 108 -48z" />
    <glyph glyph-name="s" unicode="s" horiz-adv-x="473" 
d="M446 454l-67 -60c-28 27 -63 39 -107 39c-73 0 -107 -41 -107 -81c0 -27 20 -42 60 -48l67 -10c90 -14 123 -56 123 -128c0 -43 -17 -82 -52 -116c-40 -39 -109 -56 -176 -56c-88 0 -147 25 -191 74l70 62c29 -34 67 -53 129 -53c84 0 123 44 123 82c0 36 -23 47 -59 53
l-67 10c-99 15 -124 67 -124 112c0 42 16 89 49 122c37 37 93 57 165 57c70 0 121 -18 164 -59z" />
    <glyph glyph-name="t" unicode="t" horiz-adv-x="328" 
d="M329 507l-14 -74h-92l-57 -289c-2 -11 -4 -17 -4 -25c0 -23 13 -37 48 -37h42l-16 -82h-58c-58 0 -113 31 -113 103c0 16 2 31 4 42l57 288h-57l15 74h57l29 145h97l-29 -145h91z" />
    <glyph glyph-name="u" unicode="u" horiz-adv-x="540" 
d="M513 507l-101 -507h-94l10 52c-33 -36 -81 -58 -141 -58c-68 0 -134 45 -134 142c0 16 2 37 5 53l64 318h97l-62 -311c-3 -15 -5 -28 -5 -40c0 -52 35 -76 76 -76c35 0 106 17 126 118l62 309h97z" />
    <glyph glyph-name="v" unicode="v" horiz-adv-x="447" 
d="M490 507l-276 -507h-80l-76 507h97l44 -367l186 367h105z" />
    <glyph glyph-name="w" unicode="w" horiz-adv-x="704" 
d="M745 507l-245 -507h-80l-45 356l-184 -356h-82l-50 507h98l24 -360l182 360h74l42 -360l163 360h103z" />
    <glyph glyph-name="x" unicode="x" horiz-adv-x="480" 
d="M499 507l-203 -252l118 -255h-112l-74 179l-136 -179h-120l214 262l-113 245h112l69 -170l127 170h118z" />
    <glyph glyph-name="y" unicode="y" horiz-adv-x="444" 
d="M489 507l-327 -608c-15 -27 -29 -46 -43 -60c-29 -28 -63 -40 -112 -40h-40l18 87h25c42 0 56 17 79 60l42 78l-73 483h97l44 -367l186 367h104z" />
    <glyph glyph-name="z" unicode="z" horiz-adv-x="450" 
d="M454 507l-15 -77l-305 -344h243l-17 -86h-367l16 77l303 344h-228l18 86h352z" />
    <glyph glyph-name="braceleft" unicode="{" horiz-adv-x="386" 
d="M446 786l-18 -86h-35c-59 0 -70 -19 -81 -75l-34 -169c-13 -64 -43 -89 -83 -100c32 -17 45 -41 45 -74c0 -8 -1 -21 -3 -31l-32 -161c-3 -15 -5 -27 -5 -39c0 -31 17 -39 55 -39h45l-17 -86h-67c-90 0 -116 56 -116 104c0 11 1 22 5 41l34 167c1 7 2 14 2 20
c0 7 -1 16 -3 23c-5 17 -15 37 -50 37h-31l17 85h34c20 0 38 7 51 19c14 12 22 33 28 61l33 164c10 48 21 83 52 110c24 20 58 29 104 29h70z" />
    <glyph glyph-name="bar" unicode="|" horiz-adv-x="321" 
d="M316 786l-172 -860h-96l171 860h97z" />
    <glyph glyph-name="braceright" unicode="}" horiz-adv-x="386" 
d="M372 394l-18 -85h-34c-20 0 -38 -7 -51 -19c-14 -12 -22 -33 -28 -61l-32 -164c-10 -48 -21 -83 -52 -110c-24 -20 -58 -29 -104 -29h-70l17 86h36c59 0 69 19 80 75l34 169c13 64 44 89 84 100c-32 17 -46 41 -46 74c0 8 1 21 3 31l32 161c3 15 5 27 5 39
c0 31 -17 39 -55 39h-44l17 86h67c90 0 115 -56 115 -104c0 -15 -2 -30 -4 -41l-34 -167c-3 -17 -3 -31 0 -43c5 -17 16 -37 51 -37h31z" />
    <glyph glyph-name="asciitilde" unicode="~" horiz-adv-x="545" 
d="M512 276c-71 -64 -116 -71 -150 -71c-38 0 -63 10 -103 32c-30 17 -50 23 -73 23c-26 0 -51 -6 -93 -43l-50 66c71 64 116 70 150 70c38 0 64 -10 104 -32c30 -17 50 -23 73 -23c26 0 50 6 92 43z" />
    <glyph glyph-name="uni00A0" unicode="&#xa0;" horiz-adv-x="228" 
 />
    <glyph glyph-name="exclamdown" unicode="&#xa1;" horiz-adv-x="315" 
d="M189 298l-78 -503h-117l119 503h76zM244 507l-22 -109h-106l21 109h107z" />
    <glyph glyph-name="cent" unicode="&#xa2;" horiz-adv-x="480" 
d="M494 544l-72 -58c-18 26 -40 42 -72 48l-65 -338c35 4 63 19 91 49l55 -65c-46 -44 -92 -66 -155 -73l-21 -107h-76l22 111c-79 16 -134 89 -134 186c0 143 74 306 232 324l18 91h76l-18 -91c57 -11 93 -37 119 -77zM291 535c-26 -6 -52 -25 -71 -52
c-38 -52 -56 -120 -56 -181c0 -47 19 -91 62 -103z" />
    <glyph glyph-name="sterling" unicode="&#xa3;" horiz-adv-x="537" 
d="M565 648l-76 -66c-22 32 -51 45 -90 45c-89 0 -133 -61 -149 -142l-20 -96h125l-14 -73h-125l-44 -225h290l-18 -91h-394l64 316h-59l14 73h59l21 102c28 136 103 227 259 227c70 0 122 -26 157 -70z" />
    <glyph glyph-name="currency" unicode="&#xa4;" horiz-adv-x="665" 
d="M592 81l-62 -62l-72 72c-36 -24 -79 -38 -125 -38c-47 0 -90 14 -126 38l-72 -72l-62 62l72 72c-24 36 -38 79 -38 125s14 90 38 126l-72 72l62 62l72 -72c36 24 80 38 126 38s89 -14 125 -38l72 72l62 -62l-72 -72c24 -36 38 -79 38 -126c0 -46 -14 -89 -38 -125z
M472 278c0 77 -62 140 -139 140s-140 -63 -140 -140s63 -139 140 -139s139 62 139 139z" />
    <glyph glyph-name="yen" unicode="&#xa5;" horiz-adv-x="521" 
d="M606 712l-198 -295h84l-14 -73h-120l-37 -55l-9 -48h146l-15 -73h-145l-34 -168h-103l34 168h-145l15 73h144l10 53l-15 50h-119l14 73h83l-88 295h109l85 -319l204 319h114z" />
    <glyph glyph-name="brokenbar" unicode="&#xa6;" horiz-adv-x="327" 
d="M316 786l-70 -350h-97l70 350h97zM214 276l-70 -350h-96l69 350h97z" />
    <glyph glyph-name="section" unicode="&#xa7;" horiz-adv-x="516" 
d="M490 580c0 -8 0 -17 -1 -22h-89c5 52 -29 76 -72 76c-61 0 -99 -41 -99 -95c0 -37 20 -57 57 -70l60 -21c48 -17 100 -64 100 -145c0 -84 -37 -161 -126 -204c35 -21 62 -56 62 -117c0 -104 -71 -193 -211 -193c-89 0 -156 52 -156 140c0 7 0 16 1 25h92
c-5 -48 21 -79 75 -79c53 0 103 33 103 102c0 33 -18 61 -59 76l-59 22c-50 18 -100 63 -100 144c0 84 40 165 127 205c-39 26 -58 63 -58 114c0 100 78 180 198 180c105 0 155 -67 155 -138zM354 294c0 56 -38 79 -75 79c-29 0 -53 -11 -72 -28c-22 -20 -36 -46 -44 -84
c-2 -12 -3 -20 -3 -32c0 -61 44 -79 75 -79c29 0 53 10 72 27c22 20 36 46 44 84c2 12 3 21 3 33z" />
    <glyph glyph-name="dieresis" unicode="&#xa8;" horiz-adv-x="508" 
d="M491 705l-21 -106h-88l21 106h88zM286 705l-21 -106h-88l21 106h88z" />
    <glyph glyph-name="copyright" unicode="&#xa9;" horiz-adv-x="818" 
d="M773 356c0 -190 -154 -344 -344 -344s-344 154 -344 344s154 344 344 344s344 -154 344 -344zM703 356c0 157 -121 280 -274 280s-275 -123 -275 -280s122 -280 275 -280s274 123 274 280zM559 216c-36 -32 -71 -50 -124 -50c-102 0 -170 74 -170 190s68 190 170 190
c53 0 87 -17 124 -50l-44 -44c-29 25 -48 34 -80 34c-73 0 -103 -55 -103 -130s30 -129 103 -129c32 0 51 8 80 33z" />
    <glyph glyph-name="ordfeminine" unicode="&#xaa;" horiz-adv-x="429" 
d="M429 607c0 -10 -2 -23 -4 -34l-53 -266h-76l8 37c-24 -27 -58 -41 -107 -41c-66 0 -117 36 -117 104c0 36 11 70 37 95c30 29 70 40 117 40h107l6 33c2 12 3 18 3 25c0 32 -23 49 -69 49s-74 -14 -98 -41l-43 53c36 36 79 55 150 55c63 0 139 -23 139 -109zM330 487h-88
c-52 0 -86 -31 -86 -75c0 -29 22 -45 66 -45c30 0 56 10 74 28c13 13 21 34 26 57z" />
    <glyph glyph-name="guillemotleft" unicode="&#xab;" horiz-adv-x="562" 
d="M544 500l-26 -128l-125 -108l83 -109l-22 -113l-175 230zM304 500l-26 -128l-125 -108l83 -109l-22 -113l-175 230z" />
    <glyph glyph-name="logicalnot" unicode="&#xac;" 
d="M477 333l-47 -234h-90l29 145h-324l18 89h414z" />
    <glyph glyph-name="uni00AD" unicode="&#xad;" horiz-adv-x="405" 
d="M356 323l-18 -91h-277l17 91h278z" />
    <glyph glyph-name="registered" unicode="&#xae;" horiz-adv-x="818" 
d="M773 356c0 -190 -154 -344 -344 -344s-344 154 -344 344s154 344 344 344s344 -154 344 -344zM704 356c0 157 -121 280 -275 280s-275 -123 -275 -280s121 -280 275 -280s275 123 275 280zM579 170h-78l-76 148h-48v-148h-67v372h138c70 0 121 -52 121 -114
c0 -53 -33 -86 -74 -100zM501 428c0 32 -25 57 -61 57h-63v-113h63c36 0 61 24 61 56z" />
    <glyph glyph-name="macron" unicode="&#xaf;" horiz-adv-x="496" 
d="M488 684l-14 -69h-294l14 69h294z" />
    <glyph glyph-name="degree" unicode="&#xb0;" horiz-adv-x="458" 
d="M457 549c0 -96 -73 -169 -169 -169s-170 73 -170 169s74 170 170 170s169 -74 169 -170zM379 549c0 52 -41 93 -92 93s-90 -40 -90 -93s40 -92 91 -92s91 39 91 92z" />
    <glyph glyph-name="plusminus" unicode="&#xb1;" 
d="M487 401l-18 -90h-159l-34 -171h-90l34 171h-159l18 90h159l34 171h90l-34 -171h159zM427 90l-18 -90h-409l18 90h409z" />
    <glyph glyph-name="twosuperior" unicode="&#xb2;" horiz-adv-x="310" 
d="M347 612c0 -53 -33 -92 -68 -127l-137 -135h159l-13 -65h-249l13 65l183 181c27 27 39 47 39 75c0 24 -11 45 -43 45c-43 0 -57 -29 -62 -57h-73c11 60 47 122 142 122c72 0 109 -43 109 -104z" />
    <glyph glyph-name="threesuperior" unicode="&#xb3;" horiz-adv-x="310" 
d="M345 610c0 -46 -19 -87 -67 -109c25 -17 37 -38 37 -82c0 -76 -52 -139 -146 -139c-86 0 -117 52 -117 96c0 10 1 20 2 28h72c-1 -4 -1 -8 -1 -12c0 -30 17 -47 50 -47c32 0 67 24 67 74c0 33 -13 53 -49 53h-10l12 62h9c51 0 68 39 68 72s-21 45 -42 45
c-33 0 -55 -16 -64 -55h-73c18 86 72 120 144 120c65 0 108 -42 108 -106z" />
    <glyph glyph-name="acute" unicode="&#xb4;" horiz-adv-x="496" 
d="M485 754l-130 -159h-84l114 159h100z" />
    <glyph glyph-name="mu" unicode="&#xb5;" horiz-adv-x="542" 
d="M515 507l-101 -507h-94l10 53c-33 -37 -81 -59 -141 -59c-27 0 -50 10 -65 28l-46 -227h-96l142 712h97l-62 -311c-3 -13 -5 -28 -5 -40c0 -52 35 -76 76 -76c35 0 106 17 126 118l62 309h97z" />
    <glyph glyph-name="paragraph" unicode="&#xb6;" horiz-adv-x="605" 
d="M609 712l-183 -917h-97l165 827h-102l-166 -827h-97l108 540c-77 5 -149 71 -149 171c0 102 74 206 246 206h275z" />
    <glyph glyph-name="periodcentered" unicode="&#xb7;" horiz-adv-x="264" 
d="M207 336l-23 -116h-116l23 116h116z" />
    <glyph glyph-name="cedilla" unicode="&#xb8;" horiz-adv-x="508" 
d="M248 -61l-77 -145h-94l90 145h81z" />
    <glyph glyph-name="onesuperior" unicode="&#xb9;" horiz-adv-x="310" 
d="M308 712l-86 -427h-72l68 341l-98 -72l18 87l97 71h73z" />
    <glyph glyph-name="ordmasculine" unicode="&#xba;" horiz-adv-x="435" 
d="M433 583c0 -25 -4 -54 -8 -73c-14 -76 -36 -127 -74 -162c-32 -30 -74 -45 -120 -45c-54 0 -133 29 -133 134c0 25 3 54 7 73c14 76 36 126 74 161c32 30 74 45 120 45c54 0 134 -28 134 -133zM356 575c0 52 -31 71 -64 71c-29 0 -50 -14 -62 -26
c-24 -24 -38 -62 -47 -110c-5 -28 -8 -49 -8 -66c0 -52 30 -71 63 -71c29 0 51 14 63 26c24 24 37 63 46 111c5 28 9 48 9 65z" />
    <glyph glyph-name="guillemotright" unicode="&#xbb;" horiz-adv-x="562" 
d="M292 270l-265 -228l26 127l125 109l-83 109l22 113zM532 270l-264 -228l26 127l124 109l-82 109l22 113z" />
    <glyph glyph-name="onequarter" unicode="&#xbc;" horiz-adv-x="809" 
d="M308 712l-86 -427h-72l68 341l-98 -72l18 87l97 71h73zM696 712l-461 -712h-79l460 712h80zM770 427l-198 -297h87l17 84h70l-17 -84h39l-12 -67h-40l-12 -63h-70l13 63h-168l13 67l198 297h80z" />
    <glyph glyph-name="onehalf" unicode="&#xbd;" horiz-adv-x="809" 
d="M308 712l-86 -427h-72l68 341l-98 -72l18 87l97 71h73zM696 712l-461 -712h-79l460 712h80zM789 327c0 -53 -33 -92 -68 -127l-137 -135h159l-13 -65h-249l13 65l183 181c27 27 39 47 39 75c0 24 -11 45 -43 45c-43 0 -57 -29 -62 -57h-73c11 60 47 122 142 122
c72 0 109 -43 109 -104z" />
    <glyph glyph-name="threequarters" unicode="&#xbe;" horiz-adv-x="809" 
d="M345 610c0 -46 -19 -87 -67 -109c25 -17 37 -37 37 -81c0 -76 -52 -139 -146 -139c-86 0 -117 52 -117 96c0 10 1 20 2 28h72c-1 -4 -1 -8 -1 -12c0 -30 17 -47 50 -47c32 0 67 24 67 74c0 33 -13 53 -49 53h-10l12 61h9c51 0 68 39 68 72s-21 45 -42 45
c-33 0 -55 -16 -64 -55h-73c18 86 72 120 144 120c65 0 108 -42 108 -106zM696 712l-461 -712h-79l460 712h80zM770 427l-198 -297h87l17 84h70l-17 -84h39l-12 -67h-40l-12 -63h-70l13 63h-168l13 67l198 297h80z" />
    <glyph glyph-name="questiondown" unicode="&#xbf;" horiz-adv-x="486" 
d="M366 -25c-23 -124 -110 -186 -226 -186c-82 0 -156 57 -156 153c0 65 27 113 71 162l95 108c13 15 25 37 29 55l7 31h97l-8 -38c-8 -38 -21 -66 -52 -100l-94 -105c-29 -32 -48 -62 -48 -104c0 -41 25 -75 74 -75c59 0 101 38 114 99h97zM324 507l-21 -109h-107l21 109
h107z" />
    <glyph glyph-name="Agrave" unicode="&#xc0;" horiz-adv-x="594" 
d="M537 0h-105l-18 146h-268l-77 -146h-111l390 712h83zM405 231l-43 327l-173 -327h216zM432 777h-77l-71 159h97z" />
    <glyph glyph-name="Aacute" unicode="&#xc1;" horiz-adv-x="594" 
d="M537 0h-105l-18 146h-268l-77 -146h-111l390 712h83zM405 231l-43 327l-173 -327h216zM557 936l-130 -159h-84l114 159h100z" />
    <glyph glyph-name="Acircumflex" unicode="&#xc2;" horiz-adv-x="594" 
d="M537 0h-105l-18 146h-268l-77 -146h-111l390 712h83zM405 231l-43 327l-173 -327h216zM556 776h-77l-62 100l-104 -100h-85l155 162h82z" />
    <glyph glyph-name="Atilde" unicode="&#xc3;" horiz-adv-x="594" 
d="M537 0h-105l-18 146h-268l-77 -146h-111l390 712h83zM405 231l-43 327l-173 -327h216zM569 839c-36 -34 -66 -50 -104 -50c-59 0 -91 41 -125 41c-23 0 -40 -11 -62 -32l-38 49c36 34 66 50 104 50c59 0 91 -41 125 -41c23 0 41 11 62 32z" />
    <glyph glyph-name="Adieresis" unicode="&#xc4;" horiz-adv-x="594" 
d="M537 0h-105l-18 146h-268l-77 -146h-111l390 712h83zM405 231l-43 327l-173 -327h216zM564 887l-21 -105h-88l21 105h88zM358 887l-20 -105h-88l21 105h87z" />
    <glyph glyph-name="Aring" unicode="&#xc5;" horiz-adv-x="594" 
d="M537 0h-105l-18 146h-268l-77 -146h-111l390 712h83zM405 231l-43 327l-173 -327h216zM518 870c0 -69 -55 -123 -122 -123s-122 54 -122 123s55 122 122 122s122 -53 122 -122zM461 870c0 35 -31 64 -65 64s-64 -29 -64 -64s30 -64 64 -64s65 29 65 64z" />
    <glyph glyph-name="AE" unicode="&#xc6;" horiz-adv-x="911" 
d="M949 712l-18 -90h-329l-44 -219h282l-18 -90h-282l-45 -223h334l-18 -90h-436l33 167h-222l-116 -167h-115l497 712h497zM499 622l-255 -368h182z" />
    <glyph glyph-name="Ccedilla" unicode="&#xc7;" horiz-adv-x="599" 
d="M594 503h-103c-1 73 -37 125 -112 125c-49 0 -85 -19 -115 -51c-34 -35 -50 -84 -78 -221c-15 -76 -22 -126 -22 -159c0 -71 52 -113 116 -113c84 0 136 61 159 125h106c-45 -140 -148 -215 -273 -215c-124 0 -211 79 -211 197c0 30 4 76 22 165c30 150 46 219 106 282
c50 53 122 80 195 80c141 0 210 -93 210 -215zM306 -61l-77 -145h-94l90 145h81z" />
    <glyph glyph-name="Egrave" unicode="&#xc8;" horiz-adv-x="575" 
d="M613 712l-18 -90h-329l-43 -218h282l-18 -90h-282l-45 -224h335l-18 -90h-439l143 712h432zM433 777h-77l-71 159h97z" />
    <glyph glyph-name="Eacute" unicode="&#xc9;" horiz-adv-x="575" 
d="M613 712l-18 -90h-329l-43 -218h282l-18 -90h-282l-45 -224h335l-18 -90h-439l143 712h432zM558 936l-130 -159h-84l114 159h100z" />
    <glyph glyph-name="Ecircumflex" unicode="&#xca;" horiz-adv-x="575" 
d="M613 712l-18 -90h-329l-43 -218h282l-18 -90h-282l-45 -224h335l-18 -90h-439l143 712h432zM557 776h-77l-62 100l-104 -100h-85l155 162h82z" />
    <glyph glyph-name="Edieresis" unicode="&#xcb;" horiz-adv-x="575" 
d="M613 712l-18 -90h-329l-43 -218h282l-18 -90h-282l-45 -224h335l-18 -90h-439l143 712h432zM565 887l-21 -105h-88l21 105h88zM359 887l-20 -105h-88l21 105h87z" />
    <glyph glyph-name="Igrave" unicode="&#xcc;" horiz-adv-x="279" 
d="M284 712l-143 -712h-103l143 712h103zM292 777h-77l-71 159h97z" />
    <glyph glyph-name="Iacute" unicode="&#xcd;" horiz-adv-x="279" 
d="M284 712l-143 -712h-103l143 712h103zM408 936l-130 -159h-84l114 159h100z" />
    <glyph glyph-name="Icircumflex" unicode="&#xce;" horiz-adv-x="279" 
d="M284 712l-143 -712h-103l143 712h103zM400 776h-77l-62 100l-104 -100h-85l155 162h82z" />
    <glyph glyph-name="Idieresis" unicode="&#xcf;" horiz-adv-x="279" 
d="M284 712l-143 -712h-103l143 712h103zM408 887l-21 -105h-88l21 105h88zM202 887l-20 -105h-88l21 105h87z" />
    <glyph glyph-name="Eth" unicode="&#xd0;" horiz-adv-x="650" 
d="M631 516c0 -34 -5 -66 -22 -154c-33 -171 -55 -236 -118 -295c-48 -45 -114 -67 -190 -67h-245l64 320h-70l16 79h70l63 313h227c108 0 205 -52 205 -196zM528 508c0 72 -40 114 -120 114h-124l-45 -223h131l-15 -79h-132l-46 -230h123c47 0 89 13 124 45
c36 33 56 88 82 227c16 83 22 118 22 146z" />
    <glyph glyph-name="Ntilde" unicode="&#xd1;" horiz-adv-x="686" 
d="M691 712l-143 -712h-90l-214 510l-103 -510h-103l143 712h91l214 -510l102 510h103zM608 839c-36 -34 -66 -50 -104 -50c-59 0 -91 41 -125 41c-23 0 -40 -11 -62 -32l-38 49c36 34 66 50 104 50c59 0 91 -41 125 -41c23 0 41 11 62 32z" />
    <glyph glyph-name="Ograve" unicode="&#xd2;" horiz-adv-x="614" 
d="M592 521c0 -31 -4 -76 -22 -165c-30 -149 -47 -220 -106 -282c-51 -54 -121 -80 -197 -80c-126 0 -206 83 -206 197c0 31 4 76 22 165c30 149 47 220 106 282c51 54 121 80 196 80c127 0 207 -83 207 -197zM489 513c0 76 -52 115 -110 115c-48 0 -85 -18 -116 -51
s-49 -81 -77 -221c-15 -76 -22 -124 -22 -157c0 -76 52 -115 110 -115c48 0 85 18 116 51s49 81 77 221c15 76 22 124 22 157zM440 777h-77l-71 159h97z" />
    <glyph glyph-name="Oacute" unicode="&#xd3;" horiz-adv-x="614" 
d="M592 521c0 -31 -4 -76 -22 -165c-30 -149 -47 -220 -106 -282c-51 -54 -121 -80 -197 -80c-126 0 -206 83 -206 197c0 31 4 76 22 165c30 149 47 220 106 282c51 54 121 80 196 80c127 0 207 -83 207 -197zM489 513c0 76 -52 115 -110 115c-48 0 -85 -18 -116 -51
s-49 -81 -77 -221c-15 -76 -22 -124 -22 -157c0 -76 52 -115 110 -115c48 0 85 18 116 51s49 81 77 221c15 76 22 124 22 157zM565 936l-130 -159h-84l114 159h100z" />
    <glyph glyph-name="Ocircumflex" unicode="&#xd4;" horiz-adv-x="614" 
d="M592 521c0 -31 -4 -76 -22 -165c-30 -149 -47 -220 -106 -282c-51 -54 -121 -80 -197 -80c-126 0 -206 83 -206 197c0 31 4 76 22 165c30 149 47 220 106 282c51 54 121 80 196 80c127 0 207 -83 207 -197zM489 513c0 76 -52 115 -110 115c-48 0 -85 -18 -116 -51
s-49 -81 -77 -221c-15 -76 -22 -124 -22 -157c0 -76 52 -115 110 -115c48 0 85 18 116 51s49 81 77 221c15 76 22 124 22 157zM564 776h-77l-62 100l-104 -100h-85l155 162h82z" />
    <glyph glyph-name="Otilde" unicode="&#xd5;" horiz-adv-x="614" 
d="M592 521c0 -31 -4 -76 -22 -165c-30 -149 -47 -220 -106 -282c-51 -54 -121 -80 -197 -80c-126 0 -206 83 -206 197c0 31 4 76 22 165c30 149 47 220 106 282c51 54 121 80 196 80c127 0 207 -83 207 -197zM489 513c0 76 -52 115 -110 115c-48 0 -85 -18 -116 -51
s-49 -81 -77 -221c-15 -76 -22 -124 -22 -157c0 -76 52 -115 110 -115c48 0 85 18 116 51s49 81 77 221c15 76 22 124 22 157zM577 839c-36 -34 -66 -50 -104 -50c-59 0 -91 41 -125 41c-23 0 -40 -11 -62 -32l-38 49c36 34 66 50 104 50c59 0 91 -41 125 -41
c23 0 41 11 62 32z" />
    <glyph glyph-name="Odieresis" unicode="&#xd6;" horiz-adv-x="614" 
d="M592 521c0 -31 -4 -76 -22 -165c-30 -149 -47 -220 -106 -282c-51 -54 -121 -80 -197 -80c-126 0 -206 83 -206 197c0 31 4 76 22 165c30 149 47 220 106 282c51 54 121 80 196 80c127 0 207 -83 207 -197zM489 513c0 76 -52 115 -110 115c-48 0 -85 -18 -116 -51
s-49 -81 -77 -221c-15 -76 -22 -124 -22 -157c0 -76 52 -115 110 -115c48 0 85 18 116 51s49 81 77 221c15 76 22 124 22 157zM572 887l-21 -105h-88l21 105h88zM366 887l-20 -105h-88l21 105h87z" />
    <glyph glyph-name="multiply" unicode="&#xd7;" 
d="M486 419l-167 -145l111 -146l-70 -61l-110 148l-167 -146l-51 67l166 145l-110 147l70 60l110 -147l167 145z" />
    <glyph glyph-name="Oslash" unicode="&#xd8;" horiz-adv-x="616" 
d="M625 756l-73 -113c25 -33 40 -75 40 -122c0 -31 -4 -76 -22 -165c-30 -149 -47 -220 -106 -282c-51 -54 -121 -80 -197 -80c-44 0 -83 10 -114 28l-44 -66h-79l71 110c-26 34 -40 76 -40 125c0 31 4 76 22 165c30 149 47 220 106 282c51 54 121 80 196 80
c45 0 85 -11 117 -30l43 68h80zM489 513c0 12 -2 24 -4 34l-281 -440c19 -15 44 -23 70 -23c48 0 85 18 116 51s49 81 77 221c15 76 22 124 22 157zM450 603c-19 16 -45 25 -71 25c-48 0 -85 -18 -116 -51s-49 -81 -77 -221c-15 -76 -22 -124 -22 -157c0 -13 1 -25 4 -36z
" />
    <glyph glyph-name="Ugrave" unicode="&#xd9;" horiz-adv-x="642" 
d="M656 712l-95 -473c-33 -165 -145 -245 -281 -245c-108 0 -208 68 -208 198c0 20 4 47 7 62l91 458h103l-93 -466c-2 -12 -5 -32 -5 -48c0 -56 31 -113 112 -113c83 0 152 56 174 166l92 461h103zM457 777h-77l-71 159h97z" />
    <glyph glyph-name="Uacute" unicode="&#xda;" horiz-adv-x="642" 
d="M656 712l-95 -473c-33 -165 -145 -245 -281 -245c-108 0 -208 68 -208 198c0 20 4 47 7 62l91 458h103l-93 -466c-2 -12 -5 -32 -5 -48c0 -56 31 -113 112 -113c83 0 152 56 174 166l92 461h103zM582 936l-130 -159h-84l114 159h100z" />
    <glyph glyph-name="Ucircumflex" unicode="&#xdb;" horiz-adv-x="642" 
d="M656 712l-95 -473c-33 -165 -145 -245 -281 -245c-108 0 -208 68 -208 198c0 20 4 47 7 62l91 458h103l-93 -466c-2 -12 -5 -32 -5 -48c0 -56 31 -113 112 -113c83 0 152 56 174 166l92 461h103zM582 776h-77l-62 100l-104 -100h-85l155 162h82z" />
    <glyph glyph-name="Udieresis" unicode="&#xdc;" horiz-adv-x="642" 
d="M656 712l-95 -473c-33 -165 -145 -245 -281 -245c-108 0 -208 68 -208 198c0 20 4 47 7 62l91 458h103l-93 -466c-2 -12 -5 -32 -5 -48c0 -56 31 -113 112 -113c83 0 152 56 174 166l92 461h103zM589 887l-21 -105h-88l21 105h88zM383 887l-20 -105h-88l21 105h87z" />
    <glyph glyph-name="Yacute" unicode="&#xdd;" horiz-adv-x="521" 
d="M605 712l-284 -423l-58 -289h-103l59 294l-125 418h109l85 -319l204 319h113zM514 936l-130 -159h-84l114 159h100z" />
    <glyph glyph-name="Thorn" unicode="&#xde;" horiz-adv-x="606" 
d="M587 393c0 -131 -93 -245 -258 -245h-158l-30 -148h-103l143 712h103l-28 -139h144c126 0 187 -81 187 -180zM483 385c0 52 -25 97 -98 97h-147l-49 -244h144c95 0 150 70 150 147z" />
    <glyph glyph-name="germandbls" unicode="&#xdf;" horiz-adv-x="539" 
d="M538 570c0 -54 -27 -112 -85 -143c30 -17 42 -44 42 -77c0 -9 -2 -21 -4 -33l-32 -166c-19 -101 -77 -151 -172 -151h-58l16 82h34c22 0 37 6 53 18c15 11 26 34 31 59l32 160c2 9 2 16 2 22c0 35 -23 50 -54 50h-37l15 77h32c57 0 88 49 88 95c0 18 -4 34 -16 47
c-14 15 -35 25 -67 25c-79 0 -115 -48 -129 -117l-104 -518h-98l105 525c28 139 111 194 236 194c99 0 170 -52 170 -149z" />
    <glyph glyph-name="agrave" unicode="&#xe0;" horiz-adv-x="505" 
d="M456 376c0 -12 -2 -29 -5 -42l-67 -334h-94l10 47c-33 -33 -73 -53 -133 -53c-84 0 -149 45 -149 129c0 46 15 88 46 119c39 39 90 53 148 53h134l9 41c2 9 3 19 3 30c0 41 -30 65 -87 65c-56 0 -92 -20 -123 -54l-53 65c43 45 96 71 186 71c78 0 175 -29 175 -137z
M333 227h-112c-65 0 -107 -37 -107 -96c0 -36 24 -57 81 -57c38 0 71 13 94 35c18 18 29 43 35 73zM348 595h-77l-71 159h97z" />
    <glyph glyph-name="aacute" unicode="&#xe1;" horiz-adv-x="505" 
d="M456 376c0 -12 -2 -29 -5 -42l-67 -334h-94l10 47c-33 -33 -73 -53 -133 -53c-84 0 -149 45 -149 129c0 46 15 88 46 119c39 39 90 53 148 53h134l9 41c2 9 3 19 3 30c0 41 -30 65 -87 65c-56 0 -92 -20 -123 -54l-53 65c43 45 96 71 186 71c78 0 175 -29 175 -137z
M333 227h-112c-65 0 -107 -37 -107 -96c0 -36 24 -57 81 -57c38 0 71 13 94 35c18 18 29 43 35 73zM473 754l-130 -159h-84l114 159h100z" />
    <glyph glyph-name="acircumflex" unicode="&#xe2;" horiz-adv-x="505" 
d="M456 376c0 -12 -2 -29 -5 -42l-67 -334h-94l10 47c-33 -33 -73 -53 -133 -53c-84 0 -149 45 -149 129c0 46 15 88 46 119c39 39 90 53 148 53h134l9 41c2 9 3 19 3 30c0 41 -30 65 -87 65c-56 0 -92 -20 -123 -54l-53 65c43 45 96 71 186 71c78 0 175 -29 175 -137z
M333 227h-112c-65 0 -107 -37 -107 -96c0 -36 24 -57 81 -57c38 0 71 13 94 35c18 18 29 43 35 73zM472 594h-77l-62 101l-104 -101h-85l155 162h82z" />
    <glyph glyph-name="atilde" unicode="&#xe3;" horiz-adv-x="505" 
d="M456 376c0 -12 -2 -29 -5 -42l-67 -334h-94l10 47c-33 -33 -73 -53 -133 -53c-84 0 -149 45 -149 129c0 46 15 88 46 119c39 39 90 53 148 53h134l9 41c2 9 3 19 3 30c0 41 -30 65 -87 65c-56 0 -92 -20 -123 -54l-53 65c43 45 96 71 186 71c78 0 175 -29 175 -137z
M333 227h-112c-65 0 -107 -37 -107 -96c0 -36 24 -57 81 -57c38 0 71 13 94 35c18 18 29 43 35 73zM485 654c-36 -34 -66 -50 -104 -50c-59 0 -91 41 -125 41c-23 0 -40 -11 -62 -32l-38 49c36 34 66 50 104 50c59 0 91 -41 125 -41c23 0 41 11 62 32z" />
    <glyph glyph-name="adieresis" unicode="&#xe4;" horiz-adv-x="505" 
d="M456 376c0 -12 -2 -29 -5 -42l-67 -334h-94l10 47c-33 -33 -73 -53 -133 -53c-84 0 -149 45 -149 129c0 46 15 88 46 119c39 39 90 53 148 53h134l9 41c2 9 3 19 3 30c0 41 -30 65 -87 65c-56 0 -92 -20 -123 -54l-53 65c43 45 96 71 186 71c78 0 175 -29 175 -137z
M333 227h-112c-65 0 -107 -37 -107 -96c0 -36 24 -57 81 -57c38 0 71 13 94 35c18 18 29 43 35 73zM479 705l-21 -106h-88l21 106h88zM274 705l-21 -106h-88l21 106h88z" />
    <glyph glyph-name="aring" unicode="&#xe5;" horiz-adv-x="505" 
d="M456 376c0 -12 -2 -29 -5 -42l-67 -334h-94l10 47c-33 -33 -73 -53 -133 -53c-84 0 -149 45 -149 129c0 46 15 88 46 119c39 39 90 53 148 53h134l9 41c2 9 3 19 3 30c0 41 -30 65 -87 65c-56 0 -92 -20 -123 -54l-53 65c43 45 96 71 186 71c78 0 175 -29 175 -137z
M333 227h-112c-65 0 -107 -37 -107 -96c0 -36 24 -57 81 -57c38 0 71 13 94 35c18 18 29 43 35 73zM451 698c0 -69 -56 -123 -123 -123s-122 54 -122 123s55 122 122 122s123 -53 123 -122zM393 698c0 35 -30 64 -65 64c-34 0 -64 -29 -64 -64c0 -34 30 -64 64 -64
c35 0 65 30 65 64z" />
    <glyph glyph-name="ae" unicode="&#xe6;" horiz-adv-x="800" 
d="M755 336c0 -30 -6 -71 -14 -110h-315c-3 -17 -5 -32 -5 -49c0 -58 31 -101 98 -101c54 0 92 20 131 56l53 -64c-53 -50 -117 -74 -194 -74c-63 0 -123 26 -154 79c-44 -56 -99 -79 -175 -79c-96 0 -163 40 -163 129c0 45 15 87 45 118c39 39 90 53 149 53h135l8 41
c2 9 4 20 4 31c0 42 -31 65 -88 65c-56 0 -92 -19 -123 -54l-52 65c43 46 96 71 186 71c54 0 115 -14 147 -67c38 41 90 67 154 67c108 0 173 -72 173 -177zM332 226h-111c-66 0 -108 -36 -108 -95c0 -36 24 -57 82 -57c38 0 71 13 93 35c18 18 30 43 36 73zM662 336
c0 65 -37 97 -84 97c-63 0 -113 -42 -139 -139h219c3 13 4 25 4 42z" />
    <glyph glyph-name="ccedilla" unicode="&#xe7;" horiz-adv-x="462" 
d="M457 440l-73 -63c-23 33 -48 50 -85 50c-32 0 -64 -13 -91 -41c-32 -33 -51 -83 -60 -132c-5 -25 -7 -46 -7 -71c0 -69 38 -103 90 -103c41 0 73 16 106 51l55 -70c-46 -44 -106 -67 -169 -67c-108 0 -179 71 -179 182c0 23 2 52 7 78c35 188 141 259 258 259
c72 0 117 -30 148 -73zM250 -61l-77 -145h-94l90 145h81z" />
    <glyph glyph-name="egrave" unicode="&#xe8;" horiz-adv-x="514" 
d="M470 336c0 -30 -6 -71 -15 -110h-314c-3 -16 -5 -32 -5 -49c0 -58 30 -101 97 -101c54 0 92 20 131 56l54 -64c-53 -50 -118 -74 -194 -74c-94 0 -181 51 -181 177c0 161 77 342 254 342c108 0 173 -74 173 -177zM377 336c0 65 -37 97 -85 97c-62 0 -113 -43 -139 -140
h220c2 15 4 27 4 43zM363 595h-77l-71 159h97z" />
    <glyph glyph-name="eacute" unicode="&#xe9;" horiz-adv-x="514" 
d="M470 336c0 -30 -6 -71 -15 -110h-314c-3 -16 -5 -32 -5 -49c0 -58 30 -101 97 -101c54 0 92 20 131 56l54 -64c-53 -50 -118 -74 -194 -74c-94 0 -181 51 -181 177c0 161 77 342 254 342c108 0 173 -74 173 -177zM377 336c0 65 -37 97 -85 97c-62 0 -113 -43 -139 -140
h220c2 15 4 27 4 43zM488 754l-130 -159h-84l114 159h100z" />
    <glyph glyph-name="ecircumflex" unicode="&#xea;" horiz-adv-x="514" 
d="M470 336c0 -30 -6 -71 -15 -110h-314c-3 -16 -5 -32 -5 -49c0 -58 30 -101 97 -101c54 0 92 20 131 56l54 -64c-53 -50 -118 -74 -194 -74c-94 0 -181 51 -181 177c0 161 77 342 254 342c108 0 173 -74 173 -177zM377 336c0 65 -37 97 -85 97c-62 0 -113 -43 -139 -140
h220c2 15 4 27 4 43zM487 594h-77l-62 101l-104 -101h-85l155 162h82z" />
    <glyph glyph-name="edieresis" unicode="&#xeb;" horiz-adv-x="514" 
d="M470 336c0 -30 -6 -71 -15 -110h-314c-3 -16 -5 -32 -5 -49c0 -58 30 -101 97 -101c54 0 92 20 131 56l54 -64c-53 -50 -118 -74 -194 -74c-94 0 -181 51 -181 177c0 161 77 342 254 342c108 0 173 -74 173 -177zM377 336c0 65 -37 97 -85 97c-62 0 -113 -43 -139 -140
h220c2 15 4 27 4 43zM494 705l-21 -106h-88l21 106h88zM289 705l-21 -106h-88l21 106h88z" />
    <glyph glyph-name="igrave" unicode="&#xec;" horiz-adv-x="251" 
d="M225 507l-101 -507h-97l101 507h97zM227 595h-77l-71 159h97z" />
    <glyph glyph-name="iacute" unicode="&#xed;" horiz-adv-x="251" 
d="M225 507l-101 -507h-97l101 507h97zM358 754l-130 -159h-84l114 159h100z" />
    <glyph glyph-name="icircumflex" unicode="&#xee;" horiz-adv-x="251" 
d="M225 507l-101 -507h-97l101 507h97zM351 594h-77l-62 101l-104 -101h-85l155 162h82z" />
    <glyph glyph-name="idieresis" unicode="&#xef;" horiz-adv-x="251" 
d="M225 507l-101 -507h-97l101 507h97zM150 705l-21 -106h-88l21 106h88zM355 705l-21 -106h-88l21 106h88z" />
    <glyph glyph-name="eth" unicode="&#xf0;" horiz-adv-x="509" 
d="M465 645l-13 -69h-50l32 -93c20 -59 27 -104 27 -145c0 -26 -4 -58 -10 -89c-16 -80 -40 -155 -93 -202c-39 -35 -91 -53 -146 -53c-72 0 -166 38 -166 167c0 23 5 59 11 88c20 105 47 159 90 200c35 32 82 52 141 52c17 0 33 -3 46 -8l-30 83h-112l14 69h78l-24 72h99
l23 -72h83zM364 334c0 66 -40 84 -76 84c-30 0 -57 -12 -76 -30c-27 -26 -44 -69 -58 -139c-6 -31 -11 -62 -11 -84c0 -66 41 -86 77 -86c30 0 57 13 76 32c27 26 44 69 58 138c6 32 10 62 10 85z" />
    <glyph glyph-name="ntilde" unicode="&#xf1;" horiz-adv-x="540" 
d="M487 371c0 -16 -2 -37 -5 -53l-64 -318h-97l62 311c3 15 5 28 5 40c0 52 -35 76 -76 76c-35 0 -106 -17 -126 -118l-62 -309h-97l101 507h94l-10 -52c33 36 81 58 141 58c68 0 134 -45 134 -142zM512 654c-36 -34 -66 -50 -104 -50c-59 0 -91 41 -125 41
c-23 0 -40 -11 -62 -32l-38 49c36 34 66 50 104 50c59 0 91 -41 125 -41c23 0 41 11 62 32z" />
    <glyph glyph-name="ograve" unicode="&#xf2;" horiz-adv-x="508" 
d="M464 346c0 -31 -5 -70 -9 -92c-22 -109 -50 -164 -93 -203c-41 -38 -91 -57 -151 -57c-83 0 -167 48 -167 167c0 31 5 71 9 93c22 109 50 163 93 202c41 38 91 57 151 57c83 0 167 -48 167 -167zM368 337c0 63 -35 90 -80 90c-30 0 -58 -12 -78 -32
c-27 -27 -45 -69 -60 -141c-8 -41 -10 -68 -10 -83c0 -64 36 -91 80 -91c30 0 58 12 78 32c27 27 45 67 60 142c8 41 10 67 10 83zM360 595h-77l-71 159h97z" />
    <glyph glyph-name="oacute" unicode="&#xf3;" horiz-adv-x="508" 
d="M464 346c0 -31 -5 -70 -9 -92c-22 -109 -50 -164 -93 -203c-41 -38 -91 -57 -151 -57c-83 0 -167 48 -167 167c0 31 5 71 9 93c22 109 50 163 93 202c41 38 91 57 151 57c83 0 167 -48 167 -167zM368 337c0 63 -35 90 -80 90c-30 0 -58 -12 -78 -32
c-27 -27 -45 -69 -60 -141c-8 -41 -10 -68 -10 -83c0 -64 36 -91 80 -91c30 0 58 12 78 32c27 27 45 67 60 142c8 41 10 67 10 83zM485 754l-130 -159h-84l114 159h100z" />
    <glyph glyph-name="ocircumflex" unicode="&#xf4;" horiz-adv-x="508" 
d="M464 346c0 -31 -5 -70 -9 -92c-22 -109 -50 -164 -93 -203c-41 -38 -91 -57 -151 -57c-83 0 -167 48 -167 167c0 31 5 71 9 93c22 109 50 163 93 202c41 38 91 57 151 57c83 0 167 -48 167 -167zM368 337c0 63 -35 90 -80 90c-30 0 -58 -12 -78 -32
c-27 -27 -45 -69 -60 -141c-8 -41 -10 -68 -10 -83c0 -64 36 -91 80 -91c30 0 58 12 78 32c27 27 45 67 60 142c8 41 10 67 10 83zM484 594h-77l-62 101l-104 -101h-85l155 162h82z" />
    <glyph glyph-name="otilde" unicode="&#xf5;" horiz-adv-x="508" 
d="M464 346c0 -31 -5 -70 -9 -92c-22 -109 -50 -164 -93 -203c-41 -38 -91 -57 -151 -57c-83 0 -167 48 -167 167c0 31 5 71 9 93c22 109 50 163 93 202c41 38 91 57 151 57c83 0 167 -48 167 -167zM368 337c0 63 -35 90 -80 90c-30 0 -58 -12 -78 -32
c-27 -27 -45 -69 -60 -141c-8 -41 -10 -68 -10 -83c0 -64 36 -91 80 -91c30 0 58 12 78 32c27 27 45 67 60 142c8 41 10 67 10 83zM497 654c-36 -34 -66 -50 -104 -50c-59 0 -91 41 -125 41c-23 0 -40 -11 -62 -32l-38 49c36 34 66 50 104 50c59 0 91 -41 125 -41
c23 0 41 11 62 32z" />
    <glyph glyph-name="odieresis" unicode="&#xf6;" horiz-adv-x="508" 
d="M464 346c0 -31 -5 -70 -9 -92c-22 -109 -50 -164 -93 -203c-41 -38 -91 -57 -151 -57c-83 0 -167 48 -167 167c0 31 5 71 9 93c22 109 50 163 93 202c41 38 91 57 151 57c83 0 167 -48 167 -167zM368 337c0 63 -35 90 -80 90c-30 0 -58 -12 -78 -32
c-27 -27 -45 -69 -60 -141c-8 -41 -10 -68 -10 -83c0 -64 36 -91 80 -91c30 0 58 12 78 32c27 27 45 67 60 142c8 41 10 67 10 83zM491 705l-21 -106h-88l21 106h88zM286 705l-21 -106h-88l21 106h88z" />
    <glyph glyph-name="divide" unicode="&#xf7;" 
d="M475 323l-18 -90h-414l18 90h414zM355 513l-20 -103h-104l21 103h103zM286 146l-20 -103h-104l21 103h103z" />
    <glyph glyph-name="oslash" unicode="&#xf8;" horiz-adv-x="512" 
d="M464 346c0 -31 -5 -70 -9 -92c-22 -109 -50 -164 -93 -203c-41 -38 -91 -57 -151 -57c-35 0 -70 8 -99 27l-48 -65h-66l75 101c-18 26 -29 60 -29 104c0 31 5 71 9 93c22 109 50 163 93 202c41 38 91 57 151 57c35 0 71 -9 100 -28l49 66h65l-76 -103
c18 -25 29 -59 29 -102zM140 171c0 -11 1 -21 3 -30l199 267c-14 13 -33 19 -54 19c-30 0 -58 -12 -78 -32c-27 -27 -45 -69 -60 -141c-8 -41 -10 -68 -10 -83zM368 337c0 10 -1 18 -3 27l-198 -266c14 -12 33 -18 53 -18c30 0 58 12 78 32c27 27 45 67 60 142
c8 41 10 67 10 83z" />
    <glyph glyph-name="ugrave" unicode="&#xf9;" horiz-adv-x="540" 
d="M513 507l-101 -507h-94l10 52c-33 -36 -81 -58 -141 -58c-68 0 -134 45 -134 142c0 16 2 37 5 53l64 318h97l-62 -311c-3 -15 -5 -28 -5 -40c0 -52 35 -76 76 -76c35 0 106 17 126 118l62 309h97zM369 595h-77l-71 159h97z" />
    <glyph glyph-name="uacute" unicode="&#xfa;" horiz-adv-x="540" 
d="M513 507l-101 -507h-94l10 52c-33 -36 -81 -58 -141 -58c-68 0 -134 45 -134 142c0 16 2 37 5 53l64 318h97l-62 -311c-3 -15 -5 -28 -5 -40c0 -52 35 -76 76 -76c35 0 106 17 126 118l62 309h97zM494 754l-130 -159h-84l114 159h100z" />
    <glyph glyph-name="ucircumflex" unicode="&#xfb;" horiz-adv-x="540" 
d="M513 507l-101 -507h-94l10 52c-33 -36 -81 -58 -141 -58c-68 0 -134 45 -134 142c0 16 2 37 5 53l64 318h97l-62 -311c-3 -15 -5 -28 -5 -40c0 -52 35 -76 76 -76c35 0 106 17 126 118l62 309h97zM493 594h-77l-62 101l-104 -101h-85l155 162h82z" />
    <glyph glyph-name="udieresis" unicode="&#xfc;" horiz-adv-x="540" 
d="M513 507l-101 -507h-94l10 52c-33 -36 -81 -58 -141 -58c-68 0 -134 45 -134 142c0 16 2 37 5 53l64 318h97l-62 -311c-3 -15 -5 -28 -5 -40c0 -52 35 -76 76 -76c35 0 106 17 126 118l62 309h97zM500 705l-21 -106h-88l21 106h88zM295 705l-21 -106h-88l21 106h88z" />
    <glyph glyph-name="yacute" unicode="&#xfd;" horiz-adv-x="444" 
d="M489 507l-327 -608c-15 -27 -29 -46 -43 -60c-29 -28 -63 -40 -112 -40h-40l18 87h25c42 0 56 17 79 60l42 78l-73 483h97l44 -367l186 367h104zM449 754l-130 -159h-84l114 159h100z" />
    <glyph glyph-name="thorn" unicode="&#xfe;" horiz-adv-x="526" 
d="M485 364c0 -21 -1 -51 -13 -110c-20 -99 -42 -167 -84 -209c-39 -39 -85 -51 -131 -51c-52 0 -98 18 -121 61l-53 -260h-97l183 917h97l-50 -254c21 24 58 55 129 55c104 0 140 -72 140 -149zM386 339c0 44 -14 88 -76 88c-87 0 -116 -75 -135 -173
c-5 -28 -11 -63 -11 -86c0 -44 13 -88 75 -88c87 0 117 76 136 174c5 28 11 62 11 85z" />
    <glyph glyph-name="ydieresis" unicode="&#xff;" horiz-adv-x="444" 
d="M489 507l-327 -608c-15 -27 -29 -46 -43 -60c-29 -28 -63 -40 -112 -40h-40l18 87h25c42 0 56 17 79 60l42 78l-73 483h97l44 -367l186 367h104zM456 705l-21 -106h-88l21 106h88zM251 705l-21 -106h-88l21 106h88z" />
    <glyph glyph-name="dotlessi" unicode="&#x131;" horiz-adv-x="251" 
d="M225 507l-101 -507h-97l101 507h97z" />
    <glyph glyph-name="IJ" unicode="&#x132;" horiz-adv-x="760" 
d="M284 712l-143 -712h-103l143 712h103zM773 712l-98 -493c-34 -169 -148 -225 -251 -225c-80 0 -130 26 -166 71l74 64c24 -29 51 -45 95 -45c63 0 126 41 147 145l96 483h103z" />
    <glyph glyph-name="ij" unicode="&#x133;" horiz-adv-x="502" 
d="M226 507l-102 -507h-97l102 507h97zM268 708l-18 -88h-103l17 88h104zM477 507l-116 -577c-18 -88 -70 -138 -155 -138h-64l16 83h39c39 0 61 22 69 64l114 568h97zM519 708l-18 -88h-103l17 88h104z" />
    <glyph glyph-name="Lslash" unicode="&#x141;" horiz-adv-x="561" 
d="M501 90l-17 -90h-432l53 267l-73 -43l18 92l74 43l70 353h103l-57 -287l152 89l-19 -92l-152 -89l-48 -243h328z" />
    <glyph glyph-name="lslash" unicode="&#x142;" horiz-adv-x="312" 
d="M303 511l-18 -88l-75 -43l-47 -235c-2 -12 -3 -18 -3 -27c0 -22 11 -36 46 -36h46l-17 -82h-59c-58 0 -114 31 -114 103c0 15 1 28 4 42l36 177l-63 -36l17 88l63 35l61 303h96l-49 -245z" />
    <glyph glyph-name="OE" unicode="&#x152;" horiz-adv-x="927" 
d="M965 712l-18 -91h-326l-43 -216h279l-18 -91h-279l-45 -223h332l-18 -91h-425l10 57c-33 -38 -84 -63 -151 -63c-122 0 -202 83 -202 197c0 31 4 76 22 165c30 149 47 220 106 282c51 54 121 80 196 80c68 0 119 -29 144 -73l13 67h423zM489 513c0 76 -52 115 -110 115
c-48 0 -85 -18 -116 -51s-49 -81 -77 -221c-15 -76 -22 -124 -22 -157c0 -76 52 -115 110 -115c48 0 85 18 116 51s49 81 77 221c15 76 22 124 22 157z" />
    <glyph glyph-name="oe" unicode="&#x153;" horiz-adv-x="821" 
d="M776 336c0 -30 -6 -71 -14 -110h-315c-3 -18 -5 -32 -5 -49c0 -58 31 -101 98 -101c54 0 92 20 131 56l53 -64c-53 -50 -117 -74 -193 -74c-58 0 -119 20 -151 84c-41 -56 -101 -84 -169 -84c-83 0 -168 48 -168 167c0 31 6 70 10 93c21 107 50 162 93 202
c40 38 91 57 150 57s114 -26 141 -83c45 61 105 83 166 83c108 0 173 -73 173 -177zM368 337c0 63 -35 90 -80 90c-30 0 -58 -12 -78 -32c-27 -27 -45 -69 -60 -141c-8 -41 -10 -68 -10 -83c0 -64 36 -91 80 -91c30 0 58 12 78 32c27 27 45 67 60 142c8 41 10 67 10 83z
M683 336c0 65 -37 97 -85 97c-62 0 -113 -43 -139 -140h220c2 15 4 27 4 43z" />
    <glyph glyph-name="Scaron" unicode="&#x160;" horiz-adv-x="561" 
d="M564 634l-72 -63c-32 38 -71 58 -135 58c-96 0 -153 -67 -153 -133c0 -50 40 -72 89 -84l62 -15c113 -27 158 -79 158 -179c0 -150 -128 -224 -276 -224c-106 0 -172 28 -231 98l76 66c40 -50 91 -73 164 -73c92 0 164 53 164 126c0 62 -37 82 -88 94l-63 15
c-94 22 -158 77 -158 165c0 118 90 233 268 233c79 0 147 -25 195 -84zM577 938l-155 -162h-82l-92 162h78l62 -101l104 101h85z" />
    <glyph glyph-name="scaron" unicode="&#x161;" horiz-adv-x="473" 
d="M446 454l-67 -60c-28 27 -63 39 -107 39c-73 0 -107 -41 -107 -81c0 -27 20 -42 60 -48l67 -10c90 -14 123 -56 123 -128c0 -43 -17 -82 -52 -116c-40 -39 -109 -56 -176 -56c-88 0 -147 25 -191 74l70 62c29 -34 67 -53 129 -53c84 0 123 44 123 82c0 36 -23 47 -59 53
l-67 10c-99 15 -124 67 -124 112c0 42 16 89 49 122c37 37 93 57 165 57c70 0 121 -18 164 -59zM504 756l-155 -162h-82l-91 162h77l62 -100l104 100h85z" />
    <glyph glyph-name="Ydieresis" unicode="&#x178;" horiz-adv-x="521" 
d="M605 712l-284 -423l-58 -289h-103l59 294l-125 418h109l85 -319l204 319h113zM315 887l-20 -105h-88l21 105h87zM520 887l-20 -105h-88l21 105h87z" />
    <glyph glyph-name="Zcaron" unicode="&#x17d;" horiz-adv-x="529" 
d="M570 712l-17 -82l-416 -539h315l-18 -91h-437l17 87l413 534h-299l18 91h424zM560 938l-155 -162h-82l-92 162h78l62 -101l104 101h85z" />
    <glyph glyph-name="zcaron" unicode="&#x17e;" horiz-adv-x="450" 
d="M454 507l-15 -77l-305 -344h243l-17 -86h-367l16 77l303 344h-228l18 86h352zM488 756l-155 -162h-82l-91 162h77l62 -100l104 100h85z" />
    <glyph glyph-name="longs" unicode="&#x17f;" horiz-adv-x="251" 
d="M363 717l-17 -82h-40c-35 0 -59 -19 -67 -61l-115 -574h-97l117 583c19 96 79 134 156 134h63z" />
    <glyph glyph-name="florin" unicode="&#x192;" horiz-adv-x="394" 
d="M459 716l-17 -81h-53c-39 0 -63 -21 -77 -60l-67 -184h97l-16 -73h-108l-192 -523h-97l192 523h-78l14 73h91l68 185c34 94 84 140 185 140h58z" />
    <glyph glyph-name="uni02BB" unicode="&#x2bb;" horiz-adv-x="254" 
d="M291 804l-39 -196h-106l21 104z" />
    <glyph glyph-name="afii57929" unicode="&#x2bc;" horiz-adv-x="254" 
d="M273 712l-21 -105l-125 -91l40 196h106z" />
    <glyph glyph-name="circumflex" unicode="&#x2c6;" horiz-adv-x="508" 
d="M484 594h-77l-62 101l-104 -101h-85l155 162h82z" />
    <glyph glyph-name="caron" unicode="&#x2c7;" horiz-adv-x="508" 
d="M515 756l-155 -162h-82l-91 162h77l62 -100l104 100h85z" />
    <glyph glyph-name="breve" unicode="&#x2d8;" horiz-adv-x="508" 
d="M488 721c-21 -96 -75 -135 -161 -135c-82 0 -129 42 -129 108c0 7 1 16 2 27h69c-1 -10 -1 -13 -1 -17c0 -33 27 -49 66 -49c45 0 74 20 84 66h70z" />
    <glyph glyph-name="dotaccent" unicode="&#x2d9;" horiz-adv-x="508" 
d="M389 701l-18 -94h-91l19 94h90z" />
    <glyph glyph-name="ring" unicode="&#x2da;" horiz-adv-x="508" 
d="M459 698c0 -69 -56 -123 -123 -123s-122 54 -122 123s55 122 122 122s123 -53 123 -122zM401 698c0 35 -30 64 -65 64c-34 0 -64 -29 -64 -64c0 -34 30 -64 64 -64c35 0 65 30 65 64z" />
    <glyph glyph-name="ogonek" unicode="&#x2db;" horiz-adv-x="508" 
d="M248 -61l-77 -145h-94l90 145h81z" />
    <glyph glyph-name="tilde" unicode="&#x2dc;" horiz-adv-x="508" 
d="M496 654c-36 -34 -66 -50 -104 -50c-59 0 -91 41 -125 41c-23 0 -40 -11 -62 -32l-38 49c36 34 66 50 104 50c59 0 91 -41 125 -41c23 0 41 11 62 32z" />
    <glyph glyph-name="hungarumlaut" unicode="&#x2dd;" horiz-adv-x="508" 
d="M402 754l-130 -159h-84l114 159h100zM578 754l-129 -159h-84l113 159h100z" />
    <glyph glyph-name="uni0394" unicode="&#x394;" horiz-adv-x="588" 
d="M534 0h-579l390 712h83zM424 86l-62 474l-253 -474h315z" />
    <glyph glyph-name="uni03A9" unicode="&#x3a9;" horiz-adv-x="614" 
d="M593 521c0 -31 -6 -76 -23 -165c-25 -129 -40 -178 -80 -226c-14 -17 -21 -27 -38 -39h72l-19 -91h-200l16 82c28 10 49 24 69 46c32 34 49 83 76 224c18 94 23 133 23 161c0 79 -54 114 -106 114c-47 0 -86 -16 -120 -51c-31 -32 -49 -79 -77 -224
c-18 -94 -24 -134 -24 -164c0 -51 24 -89 66 -106l-16 -82h-193l18 91h71c-28 29 -43 67 -43 121c0 32 5 70 19 144c28 149 46 221 107 282c51 51 125 80 196 80c125 0 206 -85 206 -197z" />
    <glyph glyph-name="uni03BC" unicode="&#x3bc;" horiz-adv-x="542" 
d="M515 507l-101 -507h-94l10 53c-33 -37 -81 -59 -141 -59c-27 0 -50 10 -65 28l-46 -227h-96l142 712h97l-62 -311c-3 -13 -5 -28 -5 -40c0 -52 35 -76 76 -76c35 0 106 17 126 118l62 309h97z" />
    <glyph glyph-name="pi" unicode="&#x3c0;" horiz-adv-x="573" 
d="M520 507l-102 -507h-97l86 428h-197l-86 -428h-97l102 507h391z" />
    <glyph glyph-name="uni2007" unicode="&#x2007;" 
 />
    <glyph glyph-name="uni2008" unicode="&#x2008;" horiz-adv-x="264" 
 />
    <glyph glyph-name="uni200B" unicode="&#x200b;" horiz-adv-x="0" 
 />
    <glyph glyph-name="uniFEFF" unicode="&#xfeff;" horiz-adv-x="0" 
 />
    <glyph glyph-name="endash" unicode="&#x2013;" 
d="M472 323l-18 -90h-409l18 90h409z" />
    <glyph glyph-name="emdash" unicode="&#x2014;" horiz-adv-x="923" 
d="M875 323l-18 -90h-797l18 90h797z" />
    <glyph glyph-name="quoteleft" unicode="&#x2018;" horiz-adv-x="254" 
d="M291 804l-39 -196h-106l21 104z" />
    <glyph glyph-name="quoteright" unicode="&#x2019;" horiz-adv-x="254" 
d="M273 712l-21 -105l-125 -91l40 196h106z" />
    <glyph glyph-name="quotesinglbase" unicode="&#x201a;" horiz-adv-x="254" 
d="M152 105l-21 -105l-125 -92l39 197h107z" />
    <glyph glyph-name="quotedblleft" unicode="&#x201c;" horiz-adv-x="435" 
d="M473 804l-40 -196h-106l21 104zM291 804l-39 -196h-106l21 104z" />
    <glyph glyph-name="quotedblright" unicode="&#x201d;" horiz-adv-x="435" 
d="M273 712l-21 -105l-125 -91l40 196h106zM454 712l-21 -105l-124 -91l39 196h106z" />
    <glyph glyph-name="quotedblbase" unicode="&#x201e;" horiz-adv-x="435" 
d="M333 105l-21 -105l-125 -92l39 197h107zM151 105l-20 -105l-125 -92l39 197h106z" />
    <glyph glyph-name="dagger" unicode="&#x2020;" horiz-adv-x="562" 
d="M553 516l-17 -85h-171l-86 -431h-97l86 431h-171l18 85h170l39 196h97l-39 -196h171z" />
    <glyph glyph-name="daggerdbl" unicode="&#x2021;" horiz-adv-x="562" 
d="M553 516l-17 -85h-171l-71 -351h173l-17 -86h-173l-40 -199h-96l40 199h-169l17 86h169l70 351h-171l18 85h170l39 196h97l-39 -196h171z" />
    <glyph glyph-name="bullet" unicode="&#x2022;" horiz-adv-x="487" 
d="M414 334c0 -90 -64 -154 -154 -154s-154 64 -154 154s64 154 154 154s154 -64 154 -154z" />
    <glyph glyph-name="ellipsis" unicode="&#x2026;" horiz-adv-x="762" 
d="M661 113l-22 -113h-112l23 113h111zM410 113l-23 -113h-111l22 113h112zM158 113l-22 -113h-112l23 113h111z" />
    <glyph glyph-name="perthousand" unicode="&#x2030;" horiz-adv-x="1145" 
d="M750 260c0 -11 -2 -26 -4 -36l-19 -95c-18 -89 -68 -135 -153 -135c-57 0 -116 29 -116 107c0 11 2 26 4 36l19 95c18 89 68 135 153 135c57 0 116 -29 116 -107zM677 252c0 28 -12 51 -51 51c-44 0 -65 -31 -73 -71l-19 -95c-2 -10 -3 -20 -3 -28c0 -28 12 -51 51 -51
c44 0 65 31 73 71l19 95c2 10 3 20 3 28zM695 712l-460 -712h-80l460 712h80zM391 611c0 -11 -2 -26 -4 -36l-19 -95c-18 -89 -68 -135 -153 -135c-57 0 -116 29 -116 107c0 11 2 26 4 36l19 95c18 89 68 135 153 135c57 0 116 -29 116 -107zM318 603c0 28 -12 51 -51 51
c-44 0 -65 -31 -73 -71l-19 -95c-2 -10 -3 -20 -3 -28c0 -28 12 -51 51 -51c44 0 65 31 73 71l19 95c2 10 3 20 3 28zM1087 260c0 -11 -2 -26 -4 -36l-19 -95c-18 -89 -68 -135 -153 -135c-57 0 -116 29 -116 107c0 11 2 26 4 36l19 95c18 89 68 135 153 135
c57 0 116 -29 116 -107zM1014 252c0 28 -12 51 -51 51c-44 0 -65 -31 -73 -71l-19 -95c-2 -10 -3 -20 -3 -28c0 -28 12 -51 51 -51c44 0 65 31 73 71l19 95c2 10 3 20 3 28z" />
    <glyph glyph-name="guilsinglleft" unicode="&#x2039;" horiz-adv-x="322" 
d="M304 500l-26 -128l-125 -108l83 -109l-22 -113l-175 230z" />
    <glyph glyph-name="guilsinglright" unicode="&#x203a;" horiz-adv-x="322" 
d="M292 270l-265 -228l26 127l125 109l-83 109l22 113z" />
    <glyph glyph-name="fraction" unicode="&#x2044;" horiz-adv-x="189" 
d="M386 712l-461 -712h-79l460 712h80z" />
    <glyph glyph-name="uni2070" unicode="&#x2070;" horiz-adv-x="310" 
d="M347 613c0 -8 -1 -20 -3 -29l-34 -174c-20 -99 -85 -129 -143 -129c-65 0 -106 43 -106 103c0 8 1 19 3 29l34 174c20 99 85 129 142 129c66 0 107 -43 107 -103zM274 604c0 30 -20 41 -41 41c-25 0 -53 -13 -62 -60l-34 -169c-2 -8 -3 -15 -3 -22c0 -31 19 -42 41 -42
c25 0 54 13 63 60l33 170c2 8 3 15 3 22z" />
    <glyph glyph-name="uni2074" unicode="&#x2074;" horiz-adv-x="310" 
d="M329 712l-198 -297h87l17 84h70l-17 -84h39l-12 -67h-40l-12 -63h-70l13 63h-168l13 67l198 297h80z" />
    <glyph glyph-name="uni2075" unicode="&#x2075;" horiz-adv-x="310" 
d="M363 712l-13 -66h-164l-19 -96c19 16 37 20 62 20c66 0 95 -46 95 -97c0 -13 -2 -30 -4 -44c-8 -40 -19 -82 -48 -110c-23 -23 -56 -38 -100 -38c-68 0 -107 43 -107 100c0 3 0 13 1 22h70c-1 -5 -1 -8 -1 -12c0 -24 11 -44 41 -44c42 0 60 35 69 82c3 14 5 25 5 35
c0 24 -9 44 -41 44c-30 0 -48 -16 -59 -35h-66l49 239h230z" />
    <glyph glyph-name="uni2076" unicode="&#x2076;" horiz-adv-x="310" 
d="M315 425c0 -81 -56 -144 -138 -144c-86 0 -120 62 -120 114c0 43 16 74 49 124l129 193h81l-122 -180c9 2 15 4 26 4c56 0 95 -43 95 -111zM242 423c0 34 -19 54 -49 54c-42 0 -63 -39 -63 -76c0 -34 19 -54 49 -54c40 0 63 36 63 76z" />
    <glyph glyph-name="uni2077" unicode="&#x2077;" horiz-adv-x="310" 
d="M380 712l-13 -66l-200 -361h-76l200 361h-119l-13 -69h-68l27 135h262z" />
    <glyph glyph-name="uni2078" unicode="&#x2078;" horiz-adv-x="310" 
d="M349 605c0 -47 -29 -86 -66 -106c17 -13 35 -36 35 -78c0 -76 -52 -140 -146 -140c-64 0 -118 36 -118 112c0 50 25 92 74 117c-17 14 -32 36 -32 74c0 72 55 132 139 132c66 0 114 -43 114 -111zM245 420c0 29 -17 53 -50 53c-40 0 -68 -31 -68 -74c0 -28 17 -53 49 -53
c40 0 69 32 69 74zM276 603c0 26 -16 48 -45 48c-37 0 -63 -32 -63 -69c0 -26 16 -48 45 -48c37 0 63 32 63 69z" />
    <glyph glyph-name="uni2079" unicode="&#x2079;" horiz-adv-x="310" 
d="M349 602c0 -43 -16 -74 -49 -124l-129 -193h-82l123 181c-9 -3 -15 -5 -26 -5c-57 0 -95 43 -95 111c0 82 56 144 137 144c87 0 121 -61 121 -114zM276 596c0 33 -18 54 -49 54c-43 0 -63 -37 -63 -76c0 -33 18 -54 48 -54c44 0 64 37 64 76z" />
    <glyph glyph-name="uni2080" unicode="&#x2080;" horiz-adv-x="310" 
d="M260 178c0 -8 -1 -20 -3 -29l-34 -174c-20 -99 -85 -129 -143 -129c-65 0 -106 43 -106 103c0 8 1 19 3 29l34 174c20 99 85 129 142 129c66 0 107 -43 107 -103zM187 169c0 30 -20 41 -41 41c-25 0 -53 -13 -62 -60l-34 -169c-2 -8 -3 -15 -3 -22c0 -31 19 -42 41 -42
c25 0 54 13 63 60l33 170c2 8 3 15 3 22z" />
    <glyph glyph-name="uni2081" unicode="&#x2081;" horiz-adv-x="310" 
d="M221 277l-86 -427h-72l68 341l-98 -72l18 87l97 71h73z" />
    <glyph glyph-name="uni2082" unicode="&#x2082;" horiz-adv-x="310" 
d="M260 177c0 -53 -33 -92 -68 -127l-137 -135h159l-13 -65h-249l13 65l183 181c27 27 39 47 39 75c0 24 -11 45 -43 45c-43 0 -57 -29 -62 -57h-73c11 60 47 122 142 122c72 0 109 -43 109 -104z" />
    <glyph glyph-name="uni2083" unicode="&#x2083;" horiz-adv-x="310" 
d="M257 175c0 -46 -19 -87 -67 -109c25 -17 37 -37 37 -81c0 -76 -52 -139 -146 -139c-86 0 -117 52 -117 96c0 10 1 20 2 28h72c-1 -4 -1 -8 -1 -12c0 -30 17 -47 50 -47c32 0 67 24 67 74c0 33 -13 53 -49 53h-10l12 61h9c51 0 68 39 68 72s-21 45 -42 45
c-33 0 -55 -16 -64 -55h-73c18 86 72 120 144 120c65 0 108 -42 108 -106z" />
    <glyph glyph-name="uni2084" unicode="&#x2084;" horiz-adv-x="310" 
d="M241 277l-198 -297h87l17 84h70l-17 -84h39l-12 -67h-40l-12 -63h-70l13 63h-168l13 67l198 297h80z" />
    <glyph glyph-name="uni2085" unicode="&#x2085;" horiz-adv-x="310" 
d="M276 277l-13 -66h-164l-19 -96c19 16 37 20 62 20c66 0 95 -46 95 -97c0 -13 -2 -30 -4 -44c-8 -40 -19 -82 -48 -110c-23 -23 -56 -38 -100 -38c-68 0 -107 43 -107 100c0 3 0 13 1 22h70c-1 -5 -1 -8 -1 -12c0 -24 11 -44 41 -44c42 0 60 35 69 82c3 14 5 25 5 35
c0 24 -9 44 -41 44c-30 0 -48 -16 -59 -35h-66l49 239h230z" />
    <glyph glyph-name="uni2086" unicode="&#x2086;" horiz-adv-x="310" 
d="M228 -10c0 -81 -56 -144 -138 -144c-86 0 -120 62 -120 114c0 43 16 74 49 124l129 193h81l-122 -180c9 2 15 4 26 4c56 0 95 -43 95 -111zM155 -12c0 34 -19 54 -49 54c-42 0 -63 -39 -63 -76c0 -34 19 -54 49 -54c40 0 63 36 63 76z" />
    <glyph glyph-name="uni2087" unicode="&#x2087;" horiz-adv-x="310" 
d="M292 277l-13 -66l-200 -361h-76l200 361h-119l-13 -69h-68l27 135h262z" />
    <glyph glyph-name="uni2088" unicode="&#x2088;" horiz-adv-x="310" 
d="M262 170c0 -47 -29 -86 -66 -106c17 -13 35 -36 35 -78c0 -76 -52 -140 -146 -140c-64 0 -118 36 -118 112c0 50 25 92 74 117c-17 14 -32 36 -32 74c0 72 55 132 139 132c66 0 114 -43 114 -111zM158 -15c0 29 -17 53 -50 53c-40 0 -68 -31 -68 -74c0 -28 17 -53 49 -53
c40 0 69 32 69 74zM189 168c0 26 -16 48 -45 48c-37 0 -63 -32 -63 -69c0 -26 16 -48 45 -48c37 0 63 32 63 69z" />
    <glyph glyph-name="uni2089" unicode="&#x2089;" horiz-adv-x="310" 
d="M263 167c0 -43 -16 -74 -49 -124l-129 -193h-82l123 181c-9 -3 -15 -5 -26 -5c-57 0 -95 43 -95 111c0 82 56 144 137 144c87 0 121 -61 121 -114zM190 161c0 33 -18 54 -49 54c-43 0 -63 -37 -63 -76c0 -33 18 -54 48 -54c44 0 64 37 64 76z" />
    <glyph glyph-name="Euro" unicode="&#x20ac;" horiz-adv-x="647" 
d="M633 503h-103c-1 73 -37 125 -112 125c-50 0 -85 -19 -115 -51c-24 -24 -38 -54 -54 -113h176l-13 -63h-178l-17 -86h179l-13 -63h-175c-5 -25 -5 -44 -5 -55c0 -71 52 -113 116 -113c84 0 136 61 159 125h105c-44 -140 -147 -215 -272 -215s-212 79 -212 197
c0 16 2 33 6 61h-66l12 63h63l17 86h-63l13 63h64c20 83 41 130 84 174c51 53 122 80 193 80c142 0 211 -93 211 -215z" />
    <glyph glyph-name="uni20B4" unicode="&#x20b4;" horiz-adv-x="642" 
d="M642 463l-12 -60h-73c-31 -25 -74 -43 -132 -60l-91 -27h279l-12 -60h-398c-16 -17 -24 -38 -24 -66c0 -60 50 -106 142 -106c73 0 122 19 182 73l60 -69c-78 -69 -152 -94 -254 -94c-146 0 -233 80 -233 183c0 30 4 56 13 79h-50l12 60h78c33 31 82 55 147 73l50 14
h-258l12 60h402c21 17 32 38 32 70c0 55 -41 98 -128 98c-64 0 -111 -21 -160 -64l-59 67c69 59 130 84 228 84c143 0 219 -75 219 -173c0 -33 -4 -60 -13 -82h41z" />
    <glyph glyph-name="afii61352" unicode="&#x2116;" horiz-adv-x="893" 
d="M923 599c0 -21 -4 -47 -7 -62c-13 -65 -26 -110 -60 -142c-27 -26 -61 -38 -102 -38c-47 0 -116 25 -116 117c0 21 3 48 6 63c13 64 28 109 61 141c27 26 61 38 102 38c47 0 116 -25 116 -117zM850 590c0 43 -24 60 -52 60c-21 0 -37 -9 -47 -21c-16 -17 -26 -47 -35 -92
c-5 -24 -6 -42 -6 -54c0 -43 24 -60 53 -60c20 0 37 9 47 21c15 17 25 48 34 93c5 24 6 41 6 53zM870 318l-15 -71h-261l14 71h262zM623 712l-144 -712h-88l-167 516l-104 -516h-97l144 712h87l168 -516l104 516h97z" />
    <glyph glyph-name="trademark" unicode="&#x2122;" horiz-adv-x="839" 
d="M873 712l-84 -427h-74l56 282l-121 -178h-65l-52 181l-57 -285h-73l84 427h72l71 -244l169 244h74zM419 712l-13 -66h-107l-72 -361h-73l73 361h-111l14 66h289z" />
    <glyph glyph-name="Omega" unicode="&#x2126;" horiz-adv-x="614" 
d="M593 521c0 -31 -6 -76 -23 -165c-25 -129 -40 -178 -80 -226c-14 -17 -21 -27 -38 -39h72l-19 -91h-200l16 82c28 10 49 24 69 46c32 34 49 83 76 224c18 94 23 133 23 161c0 79 -54 114 -106 114c-47 0 -86 -16 -120 -51c-31 -32 -49 -79 -77 -224
c-18 -94 -24 -134 -24 -164c0 -51 24 -89 66 -106l-16 -82h-193l18 91h71c-28 29 -43 67 -43 121c0 32 5 70 19 144c28 149 46 221 107 282c51 51 125 80 196 80c125 0 206 -85 206 -197z" />
    <glyph glyph-name="uni2150" unicode="&#x2150;" horiz-adv-x="809" 
d="M308 712l-86 -427h-72l68 341l-98 -72l18 87l97 71h73zM696 712l-461 -712h-79l460 712h80zM821 427l-13 -66l-200 -361h-76l200 361h-119l-13 -69h-68l27 135h262z" />
    <glyph glyph-name="uni2151" unicode="&#x2151;" horiz-adv-x="809" 
d="M308 712l-86 -427h-72l68 341l-98 -72l18 87l97 71h73zM696 712l-461 -712h-79l460 712h80zM792 317c0 -43 -16 -74 -49 -124l-129 -193h-82l123 181c-9 -3 -15 -5 -26 -5c-57 0 -95 43 -95 111c0 82 56 144 137 144c87 0 121 -61 121 -114zM719 311c0 33 -18 54 -49 54
c-43 0 -63 -37 -63 -76c0 -33 18 -54 48 -54c44 0 64 37 64 76z" />
    <glyph glyph-name="uni2152" unicode="&#x2152;" horiz-adv-x="1119" 
d="M308 712l-86 -427h-72l68 341l-98 -72l18 87l97 71h73zM696 712l-461 -712h-79l460 712h80zM750 427l-86 -427h-72l68 341l-98 -72l18 87l97 71h73zM1099 328c0 -8 -1 -20 -3 -29l-34 -174c-20 -99 -85 -129 -143 -129c-65 0 -106 43 -106 103c0 8 1 19 3 29l34 174
c20 99 85 129 142 129c66 0 107 -43 107 -103zM1026 319c0 30 -20 41 -41 41c-25 0 -53 -13 -62 -60l-34 -169c-2 -8 -3 -15 -3 -22c0 -31 19 -42 41 -42c25 0 54 13 63 60l33 170c2 8 3 15 3 22z" />
    <glyph glyph-name="onethird" unicode="&#x2153;" horiz-adv-x="809" 
d="M308 712l-86 -427h-72l68 341l-98 -72l18 87l97 71h73zM696 712l-461 -712h-79l460 712h80zM787 325c0 -46 -19 -87 -67 -109c25 -17 37 -37 37 -81c0 -76 -52 -139 -146 -139c-86 0 -117 52 -117 96c0 10 1 20 2 28h72c-1 -4 -1 -8 -1 -12c0 -30 17 -47 50 -47
c32 0 67 24 67 74c0 33 -13 53 -49 53h-10l12 61h9c51 0 68 39 68 72s-21 45 -42 45c-33 0 -55 -16 -64 -55h-73c18 86 72 120 144 120c65 0 108 -42 108 -106z" />
    <glyph glyph-name="twothirds" unicode="&#x2154;" horiz-adv-x="809" 
d="M347 612c0 -53 -33 -92 -68 -127l-137 -135h159l-13 -65h-249l13 65l183 181c27 27 39 47 39 75c0 24 -11 45 -43 45c-43 0 -57 -29 -62 -57h-73c11 60 47 122 142 122c72 0 109 -43 109 -104zM696 712l-461 -712h-79l460 712h80zM787 325c0 -46 -19 -87 -67 -109
c25 -17 37 -37 37 -81c0 -76 -52 -139 -146 -139c-86 0 -117 52 -117 96c0 10 1 20 2 28h72c-1 -4 -1 -8 -1 -12c0 -30 17 -47 50 -47c32 0 67 24 67 74c0 33 -13 53 -49 53h-10l12 61h9c51 0 68 39 68 72s-21 45 -42 45c-33 0 -55 -16 -64 -55h-73c18 86 72 120 144 120
c65 0 108 -42 108 -106z" />
    <glyph glyph-name="uni2155" unicode="&#x2155;" horiz-adv-x="809" 
d="M308 712l-86 -427h-72l68 341l-98 -72l18 87l97 71h73zM696 712l-461 -712h-79l460 712h80zM804 427l-13 -66h-164l-19 -96c19 16 37 20 62 20c66 0 95 -46 95 -97c0 -13 -2 -30 -4 -44c-8 -40 -19 -82 -48 -110c-23 -23 -56 -38 -100 -38c-68 0 -107 43 -107 100
c0 3 0 13 1 22h70c-1 -5 -1 -8 -1 -12c0 -24 11 -44 41 -44c42 0 60 35 69 82c3 14 5 25 5 35c0 24 -9 44 -41 44c-30 0 -48 -16 -59 -35h-66l49 239h230z" />
    <glyph glyph-name="uni2156" unicode="&#x2156;" horiz-adv-x="809" 
d="M347 612c0 -53 -33 -92 -68 -127l-137 -135h159l-13 -65h-249l13 65l183 181c27 27 39 47 39 75c0 24 -11 45 -43 45c-43 0 -57 -29 -62 -57h-73c11 60 47 122 142 122c72 0 109 -43 109 -104zM696 712l-461 -712h-79l460 712h80zM804 427l-13 -66h-164l-19 -96
c19 16 37 20 62 20c66 0 95 -46 95 -97c0 -13 -2 -30 -4 -44c-8 -40 -19 -82 -48 -110c-23 -23 -56 -38 -100 -38c-68 0 -107 43 -107 100c0 3 0 13 1 22h70c-1 -5 -1 -8 -1 -12c0 -24 11 -44 41 -44c42 0 60 35 69 82c3 14 5 25 5 35c0 24 -9 44 -41 44
c-30 0 -48 -16 -59 -35h-66l49 239h230z" />
    <glyph glyph-name="uni2157" unicode="&#x2157;" horiz-adv-x="809" 
d="M345 610c0 -46 -19 -87 -67 -109c25 -17 37 -37 37 -81c0 -76 -52 -139 -146 -139c-86 0 -117 52 -117 96c0 10 1 20 2 28h72c-1 -4 -1 -8 -1 -12c0 -30 17 -47 50 -47c32 0 67 24 67 74c0 33 -13 53 -49 53h-10l12 61h9c51 0 68 39 68 72s-21 45 -42 45
c-33 0 -55 -16 -64 -55h-73c18 86 72 120 144 120c65 0 108 -42 108 -106zM696 712l-461 -712h-79l460 712h80zM804 427l-13 -66h-164l-19 -96c19 16 37 20 62 20c66 0 95 -46 95 -97c0 -13 -2 -30 -4 -44c-8 -40 -19 -82 -48 -110c-23 -23 -56 -38 -100 -38
c-68 0 -107 43 -107 100c0 3 0 13 1 22h70c-1 -5 -1 -8 -1 -12c0 -24 11 -44 41 -44c42 0 60 35 69 82c3 14 5 25 5 35c0 24 -9 44 -41 44c-30 0 -48 -16 -59 -35h-66l49 239h230z" />
    <glyph glyph-name="uni2158" unicode="&#x2158;" horiz-adv-x="809" 
d="M329 712l-198 -297h87l17 84h70l-17 -84h39l-12 -67h-40l-12 -63h-70l13 63h-168l13 67l198 297h80zM696 712l-461 -712h-79l460 712h80zM804 427l-13 -66h-164l-19 -96c19 16 37 20 62 20c66 0 95 -46 95 -97c0 -13 -2 -30 -4 -44c-8 -40 -19 -82 -48 -110
c-23 -23 -56 -38 -100 -38c-68 0 -107 43 -107 100c0 3 0 13 1 22h70c-1 -5 -1 -8 -1 -12c0 -24 11 -44 41 -44c42 0 60 35 69 82c3 14 5 25 5 35c0 24 -9 44 -41 44c-30 0 -48 -16 -59 -35h-66l49 239h230z" />
    <glyph glyph-name="uni2159" unicode="&#x2159;" horiz-adv-x="809" 
d="M308 712l-86 -427h-72l68 341l-98 -72l18 87l97 71h73zM696 712l-461 -712h-79l460 712h80zM758 140c0 -81 -56 -144 -138 -144c-86 0 -120 62 -120 114c0 43 16 74 49 124l129 193h81l-122 -180c9 2 15 4 26 4c56 0 95 -43 95 -111zM685 138c0 34 -19 54 -49 54
c-42 0 -63 -39 -63 -76c0 -34 19 -54 49 -54c40 0 63 36 63 76z" />
    <glyph glyph-name="uni215A" unicode="&#x215a;" horiz-adv-x="809" 
d="M363 712l-13 -66h-164l-19 -96c19 16 37 20 62 20c66 0 95 -46 95 -97c0 -13 -2 -30 -4 -44c-8 -40 -19 -82 -48 -110c-23 -23 -56 -38 -100 -38c-68 0 -107 43 -107 100c0 3 0 13 1 22h70c-1 -5 -1 -8 -1 -12c0 -24 11 -44 41 -44c42 0 60 35 69 82c3 14 5 25 5 35
c0 24 -9 44 -41 44c-30 0 -48 -16 -59 -35h-66l49 239h230zM696 712l-461 -712h-79l460 712h80zM758 140c0 -81 -56 -144 -138 -144c-86 0 -120 62 -120 114c0 43 16 74 49 124l129 193h81l-122 -180c9 2 15 4 26 4c56 0 95 -43 95 -111zM685 138c0 34 -19 54 -49 54
c-42 0 -63 -39 -63 -76c0 -34 19 -54 49 -54c40 0 63 36 63 76z" />
    <glyph glyph-name="oneeighth" unicode="&#x215b;" horiz-adv-x="809" 
d="M308 712l-86 -427h-72l68 341l-98 -72l18 87l97 71h73zM696 712l-461 -712h-79l460 712h80zM791 320c0 -47 -29 -86 -66 -106c17 -13 35 -36 35 -78c0 -76 -52 -140 -146 -140c-64 0 -118 36 -118 112c0 50 25 92 74 117c-17 14 -32 36 -32 74c0 72 55 132 139 132
c66 0 114 -43 114 -111zM687 135c0 29 -17 53 -50 53c-40 0 -68 -31 -68 -74c0 -28 17 -53 49 -53c40 0 69 32 69 74zM718 318c0 26 -16 48 -45 48c-37 0 -63 -32 -63 -69c0 -26 16 -48 45 -48c37 0 63 32 63 69z" />
    <glyph glyph-name="threeeighths" unicode="&#x215c;" horiz-adv-x="809" 
d="M345 610c0 -46 -19 -87 -67 -109c25 -17 37 -37 37 -81c0 -76 -52 -139 -146 -139c-86 0 -117 52 -117 96c0 10 1 20 2 28h72c-1 -4 -1 -8 -1 -12c0 -30 17 -47 50 -47c32 0 67 24 67 74c0 33 -13 53 -49 53h-10l12 61h9c51 0 68 39 68 72s-21 45 -42 45
c-33 0 -55 -16 -64 -55h-73c18 86 72 120 144 120c65 0 108 -42 108 -106zM696 712l-461 -712h-79l460 712h80zM791 320c0 -47 -29 -86 -66 -106c17 -13 35 -36 35 -78c0 -76 -52 -140 -146 -140c-64 0 -118 36 -118 112c0 50 25 92 74 117c-17 14 -32 36 -32 74
c0 72 55 132 139 132c66 0 114 -43 114 -111zM687 135c0 29 -17 53 -50 53c-40 0 -68 -31 -68 -74c0 -28 17 -53 49 -53c40 0 69 32 69 74zM718 318c0 26 -16 48 -45 48c-37 0 -63 -32 -63 -69c0 -26 16 -48 45 -48c37 0 63 32 63 69z" />
    <glyph glyph-name="fiveeighths" unicode="&#x215d;" horiz-adv-x="809" 
d="M363 712l-13 -66h-164l-19 -96c19 16 37 20 62 20c66 0 95 -46 95 -97c0 -13 -2 -30 -4 -44c-8 -40 -19 -82 -48 -110c-23 -23 -56 -38 -100 -38c-68 0 -107 43 -107 100c0 3 0 13 1 22h70c-1 -5 -1 -8 -1 -12c0 -24 11 -44 41 -44c42 0 60 35 69 82c3 14 5 25 5 35
c0 24 -9 44 -41 44c-30 0 -48 -16 -59 -35h-66l49 239h230zM696 712l-461 -712h-79l460 712h80zM791 320c0 -47 -29 -86 -66 -106c17 -13 35 -36 35 -78c0 -76 -52 -140 -146 -140c-64 0 -118 36 -118 112c0 50 25 92 74 117c-17 14 -32 36 -32 74c0 72 55 132 139 132
c66 0 114 -43 114 -111zM687 135c0 29 -17 53 -50 53c-40 0 -68 -31 -68 -74c0 -28 17 -53 49 -53c40 0 69 32 69 74zM718 318c0 26 -16 48 -45 48c-37 0 -63 -32 -63 -69c0 -26 16 -48 45 -48c37 0 63 32 63 69z" />
    <glyph glyph-name="seveneighths" unicode="&#x215e;" horiz-adv-x="809" 
d="M380 712l-13 -66l-200 -361h-76l200 361h-119l-13 -69h-68l27 135h262zM696 712l-461 -712h-79l460 712h80zM791 320c0 -47 -29 -86 -66 -106c17 -13 35 -36 35 -78c0 -76 -52 -140 -146 -140c-64 0 -118 36 -118 112c0 50 25 92 74 117c-17 14 -32 36 -32 74
c0 72 55 132 139 132c66 0 114 -43 114 -111zM687 135c0 29 -17 53 -50 53c-40 0 -68 -31 -68 -74c0 -28 17 -53 49 -53c40 0 69 32 69 74zM718 318c0 26 -16 48 -45 48c-37 0 -63 -32 -63 -69c0 -26 16 -48 45 -48c37 0 63 32 63 69z" />
    <glyph glyph-name="uni215F" unicode="&#x215f;" horiz-adv-x="499" 
d="M308 712l-86 -427h-72l68 341l-98 -72l18 87l97 71h73zM696 712l-461 -712h-79l460 712h80z" />
    <glyph glyph-name="uni2189" unicode="&#x2189;" horiz-adv-x="809" 
d="M347 613c0 -8 -1 -20 -3 -29l-34 -174c-20 -99 -85 -129 -143 -129c-65 0 -106 43 -106 103c0 8 1 19 3 29l34 174c20 99 85 129 142 129c66 0 107 -43 107 -103zM274 604c0 30 -20 41 -41 41c-25 0 -53 -13 -62 -60l-34 -169c-2 -8 -3 -15 -3 -22c0 -31 19 -42 41 -42
c25 0 54 13 63 60l33 170c2 8 3 15 3 22zM696 712l-461 -712h-79l460 712h80zM787 325c0 -46 -19 -87 -67 -109c25 -17 37 -37 37 -81c0 -76 -52 -139 -146 -139c-86 0 -117 52 -117 96c0 10 1 20 2 28h72c-1 -4 -1 -8 -1 -12c0 -30 17 -47 50 -47c32 0 67 24 67 74
c0 33 -13 53 -49 53h-10l12 61h9c51 0 68 39 68 72s-21 45 -42 45c-33 0 -55 -16 -64 -55h-73c18 86 72 120 144 120c65 0 108 -42 108 -106z" />
    <glyph glyph-name="arrowleft" unicode="&#x2190;" horiz-adv-x="1027" 
d="M444 -114l-392 391l392 392h130l-345 -343h745v-97h-745l345 -343h-130z" />
    <glyph glyph-name="arrowup" unicode="&#x2191;" horiz-adv-x="1027" 
d="M121 347l391 392l392 -392v-130l-343 345v-745h-97v745l-343 -345v130z" />
    <glyph glyph-name="arrowright" unicode="&#x2192;" horiz-adv-x="1027" 
d="M453 -114l345 344h-745v96h745l-345 344h130l392 -392l-392 -392h-130z" />
    <glyph glyph-name="arrowdown" unicode="&#x2193;" horiz-adv-x="1027" 
d="M905 209l-391 -392l-392 392v130l343 -345v745h97v-745l343 345v-130z" />
    <glyph glyph-name="uni2196" unicode="&#x2196;" horiz-adv-x="1027" 
d="M873 -14l-68 -68l-527 526l1 -487l-92 92v554h555l92 -92l-487 1z" />
    <glyph glyph-name="uni2197" unicode="&#x2197;" horiz-adv-x="1027" 
d="M839 49l-91 -92l1 488l-528 -527l-68 68l527 527l-487 -2l92 92h554v-554z" />
    <glyph glyph-name="uni2198" unicode="&#x2198;" horiz-adv-x="1027" 
d="M839 -82h-554l-92 91l487 -1l-527 527l68 68l528 -526l-1 487l91 -92v-554z" />
    <glyph glyph-name="uni2199" unicode="&#x2199;" horiz-adv-x="1027" 
d="M873 535l-526 -527l487 1l-92 -91h-555v554l92 92l-1 -487l527 526z" />
    <glyph glyph-name="partialdiff" unicode="&#x2202;" horiz-adv-x="522" 
d="M495 545c0 -14 -2 -38 -5 -54l-46 -242c-15 -81 -32 -149 -85 -200c-39 -37 -91 -55 -144 -55c-95 0 -167 54 -167 169c0 21 3 56 9 86c16 87 39 156 93 205c34 31 80 50 137 50c41 0 80 -16 101 -47l9 53c2 11 3 19 3 29c0 55 -26 97 -92 97c-51 0 -80 -15 -118 -46
l-49 66c58 49 113 62 174 62c89 0 180 -46 180 -173zM359 333c0 60 -39 85 -78 85c-25 0 -49 -9 -70 -29c-33 -31 -47 -87 -57 -140c-5 -29 -11 -58 -11 -84c0 -60 39 -85 78 -85c25 0 49 9 70 29c33 31 47 87 57 140c5 29 11 58 11 84z" />
    <glyph glyph-name="Delta" unicode="&#x2206;" horiz-adv-x="588" 
d="M534 0h-579l390 712h83zM424 86l-62 474l-253 -474h315z" />
    <glyph glyph-name="product" unicode="&#x220f;" horiz-adv-x="656" 
d="M669 760l-192 -965h-103l175 875h-273l-176 -875h-102l192 965h479z" />
    <glyph glyph-name="summation" unicode="&#x2211;" horiz-adv-x="524" 
d="M579 760l-18 -90h-318l96 -343l-20 -95l-224 -347h317l-18 -90h-436l16 82l269 417l-112 386l16 80h432z" />
    <glyph glyph-name="minus" unicode="&#x2212;" 
d="M472 324l-18 -90h-409l18 90h409z" />
    <glyph glyph-name="uni2219" unicode="&#x2219;" 
d="M407 334c0 -90 -64 -154 -154 -154s-154 64 -154 154s64 154 154 154s154 -64 154 -154z" />
    <glyph glyph-name="radical" unicode="&#x221a;" horiz-adv-x="550" 
d="M618 712l-18 -90h-83l-317 -622h-83l-60 507h101l34 -325l263 530h163z" />
    <glyph glyph-name="infinity" unicode="&#x221e;" horiz-adv-x="788" 
d="M737 276c0 -93 -61 -166 -166 -166c-67 0 -119 33 -171 95c-52 -62 -103 -96 -169 -96c-105 0 -167 74 -167 167s62 166 167 166c65 0 117 -33 169 -95c52 62 104 95 171 95c105 0 166 -73 166 -166zM338 273c-36 44 -65 78 -106 78c-43 0 -75 -31 -75 -78s32 -75 75 -75
c41 0 70 31 106 75zM644 273c0 47 -33 76 -76 76c-41 0 -70 -32 -106 -76c36 -44 65 -75 106 -75c43 0 76 28 76 75z" />
    <glyph glyph-name="integral" unicode="&#x222b;" horiz-adv-x="420" 
d="M457 716l-17 -81h-39c-46 0 -72 -21 -83 -74l-120 -601c-23 -113 -78 -162 -184 -162h-57l17 82h39c46 0 72 20 83 73l120 602c23 113 78 161 184 161h57z" />
    <glyph glyph-name="approxequal" unicode="&#x2248;" horiz-adv-x="545" 
d="M493 177c-71 -64 -116 -71 -150 -71c-38 0 -64 10 -104 32c-30 17 -50 24 -73 24c-26 0 -51 -6 -93 -43l-50 65c71 64 116 71 150 71c38 0 64 -10 104 -32c30 -17 50 -24 73 -24c26 0 51 6 93 43zM533 373c-71 -64 -116 -70 -150 -70c-38 0 -64 10 -104 32
c-30 17 -50 23 -73 23c-26 0 -51 -6 -93 -43l-50 65c71 64 116 71 150 71c38 0 64 -10 104 -32c30 -17 50 -24 73 -24c26 0 51 6 93 43z" />
    <glyph glyph-name="notequal" unicode="&#x2260;" horiz-adv-x="542" 
d="M539 489l-74 -72h62l-19 -90h-129l-102 -99h213l-18 -90h-280l-126 -125l-52 53l74 72h-61l17 90h129l103 99h-213l18 90h281l125 125z" />
    <glyph glyph-name="lessequal" unicode="&#x2264;" 
d="M491 582l-21 -107l-262 -117l218 -121l-20 -97l-317 185l17 81zM392 65l-19 -94l-317 185l19 94z" />
    <glyph glyph-name="greaterequal" unicode="&#x2265;" 
d="M462 401l-17 -82l-385 -175l21 106l262 117l-217 121l19 98zM433 244l-20 -103l-385 -176l20 103z" />
    <glyph glyph-name="dotmath" unicode="&#x22c5;" 
d="M322 336l-23 -116h-116l23 116h116z" />
    <glyph glyph-name="lozenge" unicode="&#x25ca;" horiz-adv-x="611" 
d="M573 334l-313 -353l-181 377l312 353zM467 346l-100 212l-182 -212l99 -212z" />
    <glyph glyph-name="fi" unicode="&#xfb01;" horiz-adv-x="555" 
d="M378 717l-17 -82h-40c-35 0 -59 -19 -67 -61l-14 -67h97l-15 -74h-96l-87 -433h-97l87 433h-55l14 74h55l16 76c20 96 79 134 156 134h63zM530 507l-102 -507h-97l102 507h97zM572 708l-18 -88h-103l17 88h104z" />
    <glyph glyph-name="fl" unicode="&#xfb02;" horiz-adv-x="604" 
d="M378 717l-17 -82h-40c-35 0 -59 -19 -67 -61l-14 -67h97l-15 -74h-96l-87 -433h-97l87 433h-55l14 74h55l16 76c20 96 79 134 156 134h63zM569 712l-113 -567c-2 -12 -4 -17 -4 -27c0 -22 12 -36 47 -36h46l-17 -82h-60c-58 0 -113 31 -113 103c0 15 1 28 4 42l113 567
h97z" />
    <glyph glyph-name="zero.numr" horiz-adv-x="310" 
d="M347 613c0 -8 -1 -20 -3 -29l-34 -174c-20 -99 -85 -129 -143 -129c-65 0 -106 43 -106 103c0 8 1 19 3 29l34 174c20 99 85 129 142 129c66 0 107 -43 107 -103zM274 604c0 30 -20 41 -41 41c-25 0 -53 -13 -62 -60l-34 -169c-2 -8 -3 -15 -3 -22c0 -31 19 -42 41 -42
c25 0 54 13 63 60l33 170c2 8 3 15 3 22z" />
    <glyph glyph-name="one.numr" horiz-adv-x="310" 
d="M308 712l-86 -427h-72l68 341l-98 -72l18 87l97 71h73z" />
    <glyph glyph-name="two.numr" horiz-adv-x="310" 
d="M347 612c0 -53 -33 -92 -68 -127l-137 -135h159l-13 -65h-249l13 65l183 181c27 27 39 47 39 75c0 24 -11 45 -43 45c-43 0 -57 -29 -62 -57h-73c11 60 47 122 142 122c72 0 109 -43 109 -104z" />
    <glyph glyph-name="three.numr" horiz-adv-x="310" 
d="M345 610c0 -46 -19 -87 -67 -109c25 -17 37 -37 37 -81c0 -76 -52 -139 -146 -139c-86 0 -117 52 -117 96c0 10 1 20 2 28h72c-1 -4 -1 -8 -1 -12c0 -30 17 -47 50 -47c32 0 67 24 67 74c0 33 -13 53 -49 53h-10l12 61h9c51 0 68 39 68 72s-21 45 -42 45
c-33 0 -55 -16 -64 -55h-73c18 86 72 120 144 120c65 0 108 -42 108 -106z" />
    <glyph glyph-name="four.numr" horiz-adv-x="310" 
d="M329 712l-198 -297h87l17 84h70l-17 -84h39l-12 -67h-40l-12 -63h-70l13 63h-168l13 67l198 297h80z" />
    <glyph glyph-name="five.numr" horiz-adv-x="310" 
d="M363 712l-13 -66h-164l-19 -96c19 16 37 20 62 20c66 0 95 -46 95 -97c0 -13 -2 -30 -4 -44c-8 -40 -19 -82 -48 -110c-23 -23 -56 -38 -100 -38c-68 0 -107 43 -107 100c0 3 0 13 1 22h70c-1 -5 -1 -8 -1 -12c0 -24 11 -44 41 -44c42 0 60 35 69 82c3 14 5 25 5 35
c0 24 -9 44 -41 44c-30 0 -48 -16 -59 -35h-66l49 239h230z" />
    <glyph glyph-name="six.numr" horiz-adv-x="310" 
d="M315 425c0 -81 -56 -144 -138 -144c-86 0 -120 62 -120 114c0 43 16 74 49 124l129 193h81l-122 -180c9 2 15 4 26 4c56 0 95 -43 95 -111zM242 423c0 34 -19 54 -49 54c-42 0 -63 -39 -63 -76c0 -34 19 -54 49 -54c40 0 63 36 63 76z" />
    <glyph glyph-name="seven.numr" horiz-adv-x="310" 
d="M380 712l-13 -66l-200 -361h-76l200 361h-119l-13 -69h-68l27 135h262z" />
    <glyph glyph-name="eight.numr" horiz-adv-x="310" 
d="M349 605c0 -47 -29 -86 -66 -106c17 -13 35 -36 35 -78c0 -76 -52 -140 -146 -140c-64 0 -118 36 -118 112c0 50 25 92 74 117c-17 14 -32 36 -32 74c0 72 55 132 139 132c66 0 114 -43 114 -111zM245 420c0 29 -17 53 -50 53c-40 0 -68 -31 -68 -74c0 -28 17 -53 49 -53
c40 0 69 32 69 74zM276 603c0 26 -16 48 -45 48c-37 0 -63 -32 -63 -69c0 -26 16 -48 45 -48c37 0 63 32 63 69z" />
    <glyph glyph-name="nine.numr" horiz-adv-x="310" 
d="M349 602c0 -43 -16 -74 -49 -124l-129 -193h-82l123 181c-9 -3 -15 -5 -26 -5c-57 0 -95 43 -95 111c0 82 56 144 137 144c87 0 121 -61 121 -114zM276 596c0 33 -18 54 -49 54c-43 0 -63 -37 -63 -76c0 -33 18 -54 48 -54c44 0 64 37 64 76z" />
    <glyph glyph-name="zero.dnom" horiz-adv-x="310" 
d="M290 328c0 -8 -1 -20 -3 -29l-34 -174c-20 -99 -85 -129 -143 -129c-65 0 -106 43 -106 103c0 8 1 19 3 29l34 174c20 99 85 129 142 129c66 0 107 -43 107 -103zM217 319c0 30 -20 41 -41 41c-25 0 -53 -13 -62 -60l-34 -169c-2 -8 -3 -15 -3 -22c0 -31 19 -42 41 -42
c25 0 54 13 63 60l33 170c2 8 3 15 3 22z" />
    <glyph glyph-name="one.dnom" horiz-adv-x="310" 
d="M251 427l-86 -427h-72l68 341l-98 -72l18 87l97 71h73z" />
    <glyph glyph-name="two.dnom" horiz-adv-x="310" 
d="M290 327c0 -53 -33 -92 -68 -127l-137 -135h159l-13 -65h-249l13 65l183 181c27 27 39 47 39 75c0 24 -11 45 -43 45c-43 0 -57 -29 -62 -57h-73c11 60 47 122 142 122c72 0 109 -43 109 -104z" />
    <glyph glyph-name="three.dnom" horiz-adv-x="310" 
d="M288 325c0 -46 -19 -87 -67 -109c25 -17 37 -37 37 -81c0 -76 -52 -139 -146 -139c-86 0 -117 52 -117 96c0 10 1 20 2 28h72c-1 -4 -1 -8 -1 -12c0 -30 17 -47 50 -47c32 0 67 24 67 74c0 33 -13 53 -49 53h-10l12 61h9c51 0 68 39 68 72s-21 45 -42 45
c-33 0 -55 -16 -64 -55h-73c18 86 72 120 144 120c65 0 108 -42 108 -106z" />
    <glyph glyph-name="four.dnom" horiz-adv-x="310" 
d="M271 427l-198 -297h87l17 84h70l-17 -84h39l-12 -67h-40l-12 -63h-70l13 63h-168l13 67l198 297h80z" />
    <glyph glyph-name="five.dnom" horiz-adv-x="310" 
d="M305 427l-13 -66h-164l-19 -96c19 16 37 20 62 20c66 0 95 -46 95 -97c0 -13 -2 -30 -4 -44c-8 -40 -19 -82 -48 -110c-23 -23 -56 -38 -100 -38c-68 0 -107 43 -107 100c0 3 0 13 1 22h70c-1 -5 -1 -8 -1 -12c0 -24 11 -44 41 -44c42 0 60 35 69 82c3 14 5 25 5 35
c0 24 -9 44 -41 44c-30 0 -48 -16 -59 -35h-66l49 239h230z" />
    <glyph glyph-name="six.dnom" horiz-adv-x="310" 
d="M259 140c0 -81 -56 -144 -138 -144c-86 0 -120 62 -120 114c0 43 16 74 49 124l129 193h81l-122 -180c9 2 15 4 26 4c56 0 95 -43 95 -111zM186 138c0 34 -19 54 -49 54c-42 0 -63 -39 -63 -76c0 -34 19 -54 49 -54c40 0 63 36 63 76z" />
    <glyph glyph-name="seven.dnom" horiz-adv-x="310" 
d="M322 427l-13 -66l-200 -361h-76l200 361h-119l-13 -69h-68l27 135h262z" />
    <glyph glyph-name="eight.dnom" horiz-adv-x="310" 
d="M292 320c0 -47 -29 -86 -66 -106c17 -13 35 -36 35 -78c0 -76 -52 -140 -146 -140c-64 0 -118 36 -118 112c0 50 25 92 74 117c-17 14 -32 36 -32 74c0 72 55 132 139 132c66 0 114 -43 114 -111zM188 135c0 29 -17 53 -50 53c-40 0 -68 -31 -68 -74c0 -28 17 -53 49 -53
c40 0 69 32 69 74zM219 318c0 26 -16 48 -45 48c-37 0 -63 -32 -63 -69c0 -26 16 -48 45 -48c37 0 63 32 63 69z" />
    <glyph glyph-name="nine.dnom" horiz-adv-x="310" 
d="M293 317c0 -43 -16 -74 -49 -124l-129 -193h-82l123 181c-9 -3 -15 -5 -26 -5c-57 0 -95 43 -95 111c0 82 56 144 137 144c87 0 121 -61 121 -114zM220 311c0 33 -18 54 -49 54c-43 0 -63 -37 -63 -76c0 -33 18 -54 48 -54c44 0 64 37 64 76z" />
    <glyph glyph-name="space.frac" horiz-adv-x="45" 
 />
    <glyph glyph-name="zero.osf" 
d="M482 440c0 -14 -2 -33 -5 -48l-38 -191c-32 -162 -141 -207 -228 -207c-94 0 -167 59 -167 163c0 14 2 33 5 48l38 191c32 162 141 207 228 207c94 0 167 -59 167 -163zM386 435c0 60 -40 82 -77 82c-50 0 -108 -28 -126 -119l-38 -196c-3 -13 -5 -27 -5 -40
c0 -60 40 -82 77 -82c50 0 107 28 125 119l39 196c3 13 5 27 5 40z" />
    <glyph glyph-name="one.osf" horiz-adv-x="386" 
d="M348 597l-119 -597h-97l98 485l-157 -116l22 114l156 114h97z" />
    <glyph glyph-name="two.osf" horiz-adv-x="505" 
d="M476 455c0 -78 -52 -134 -138 -207l-190 -162h278l-18 -86h-413l17 86l271 225c70 58 95 91 95 141c0 61 -41 85 -81 85c-48 0 -103 -22 -122 -106h-98c27 140 120 192 228 192s171 -68 171 -168z" />
    <glyph glyph-name="three.osf" horiz-adv-x="500" 
d="M469 441c0 -81 -37 -157 -117 -192c48 -23 71 -62 71 -128c0 -128 -95 -243 -235 -243c-122 0 -188 67 -188 163c0 10 0 20 2 32h95c-1 -8 -1 -13 -1 -22c0 -49 30 -87 92 -87c78 0 137 72 137 154c0 56 -29 88 -94 88h-18l17 85h18c74 0 124 69 124 142
c0 52 -30 84 -82 84c-55 0 -105 -39 -121 -102h-98c32 128 117 188 232 188c100 0 166 -66 166 -162z" />
    <glyph glyph-name="four.osf" horiz-adv-x="540" 
d="M480 123l-18 -90h-83l-31 -156h-93l31 156h-293l18 90l339 512h106l-339 -512h186l35 174h93l-34 -174h83z" />
    <glyph glyph-name="five.osf" horiz-adv-x="508" 
d="M505 597l-18 -86h-276l-38 -192c34 29 67 39 114 39c106 0 152 -73 152 -155c0 -26 -3 -56 -8 -81c-14 -72 -34 -137 -80 -183c-37 -37 -88 -61 -157 -61c-115 0 -170 72 -170 158c0 4 0 18 2 31h94c-1 -8 -1 -14 -1 -21c0 -46 24 -81 78 -81c86 0 118 69 135 157
c5 25 8 48 8 68c0 49 -18 86 -76 86c-52 0 -89 -25 -113 -66h-87l78 387h363z" />
    <glyph glyph-name="six.osf" horiz-adv-x="510" 
d="M464 243c0 -131 -86 -249 -229 -249c-144 0 -200 101 -200 199c0 73 29 136 86 215l232 320h106l-223 -302c18 7 38 10 59 10c89 0 169 -62 169 -193zM368 239c0 71 -40 119 -102 119c-86 0 -135 -83 -135 -159c0 -71 40 -120 102 -120c81 0 135 76 135 160z" />
    <glyph glyph-name="seven.osf" horiz-adv-x="503" 
d="M539 597l-17 -86l-384 -632h-106l384 632h-229l-22 -108h-93l39 194h428z" />
    <glyph glyph-name="eight.osf" horiz-adv-x="521" 
d="M515 545c0 -81 -47 -152 -116 -184c37 -27 65 -67 65 -137c0 -120 -81 -230 -237 -230c-99 0 -186 56 -186 178c0 89 44 161 131 202c-31 25 -57 62 -57 122c0 124 92 222 224 222c101 0 176 -67 176 -173zM367 225c0 58 -36 99 -94 99c-80 0 -134 -64 -134 -145
c0 -58 35 -99 93 -99c81 0 135 63 135 145zM418 544c0 50 -29 88 -84 88c-75 0 -122 -68 -122 -136c0 -50 29 -88 84 -88c75 0 122 68 122 136z" />
    <glyph glyph-name="nine.osf" horiz-adv-x="510" 
d="M494 404c0 -73 -29 -136 -86 -215l-231 -320h-107l223 302c-18 -7 -38 -10 -59 -10c-89 0 -169 62 -169 193s86 249 229 249c144 0 200 -101 200 -199zM398 398c0 68 -37 120 -102 120c-80 0 -135 -76 -135 -160c0 -68 38 -119 103 -119c85 0 134 83 134 159z" />
    <glyph glyph-name="zero.lf" 
d="M505 555c0 -14 -2 -33 -5 -48l-61 -306c-32 -162 -141 -207 -228 -207c-94 0 -167 59 -167 163c0 14 2 33 5 48l61 306c32 162 141 207 228 207c94 0 167 -59 167 -163zM409 550c0 60 -40 82 -77 82c-50 0 -108 -28 -126 -119l-61 -311c-3 -13 -5 -27 -5 -40
c0 -60 40 -82 77 -82c50 0 108 28 126 119l61 311c3 13 5 27 5 40z" />
    <glyph glyph-name="one.lf" horiz-adv-x="449" 
d="M430 712l-143 -712h-96l120 600l-157 -116l22 114l157 114h97z" />
    <glyph glyph-name="two.lf" 
d="M507 548c0 -82 -41 -132 -94 -187l-263 -275h276l-17 -86h-400l18 86l320 335c42 44 62 75 62 123c0 57 -30 88 -82 88c-54 0 -104 -30 -123 -111h-97c24 131 108 197 229 197c105 0 171 -61 171 -170z" />
    <glyph glyph-name="three.lf" 
d="M497 557c0 -81 -38 -157 -118 -192c48 -23 71 -63 71 -129c0 -128 -95 -243 -235 -243c-122 0 -188 67 -188 163c0 10 0 20 2 32h95c-1 -8 -1 -12 -1 -21c0 -49 31 -87 93 -87c78 0 136 71 136 153c0 56 -29 89 -94 89h-18l17 84h18c74 0 125 69 125 142
c0 52 -31 84 -83 84c-55 0 -105 -39 -121 -102h-98c32 128 117 189 232 189c100 0 167 -66 167 -162z" />
    <glyph glyph-name="four.lf" 
d="M467 200l-19 -90h-74l-22 -110h-93l22 110h-277l18 90l337 512h108l-337 -512h168l33 164h93l-33 -164h76z" />
    <glyph glyph-name="five.lf" 
d="M529 712l-17 -86h-276l-39 -192c34 29 68 39 115 39c106 0 151 -73 151 -155c0 -26 -3 -56 -8 -81c-14 -72 -35 -138 -81 -184c-36 -37 -87 -60 -156 -60c-115 0 -169 72 -169 158c0 4 0 18 2 31h93c-1 -8 -1 -14 -1 -21c0 -46 24 -81 78 -81c86 0 119 69 136 157
c5 25 7 48 7 68c0 49 -17 86 -75 86c-52 0 -90 -25 -114 -66h-86l77 387h363z" />
    <glyph glyph-name="six.lf" 
d="M449 229c0 -135 -94 -235 -218 -235c-136 0 -188 96 -188 184c0 68 23 116 78 199l222 335h106l-208 -311c15 5 28 9 48 9c98 0 160 -73 160 -181zM352 226c0 62 -35 105 -92 105c-83 0 -121 -82 -121 -146c0 -62 34 -105 91 -105c78 0 122 75 122 146z" />
    <glyph glyph-name="seven.lf" 
d="M557 712l-17 -86l-345 -626h-107l346 626h-210l-21 -108h-93l38 194h409z" />
    <glyph glyph-name="eight.lf" 
d="M507 545c0 -81 -47 -152 -116 -184c37 -27 65 -67 65 -137c0 -120 -82 -230 -238 -230c-99 0 -185 56 -185 178c0 89 43 161 130 202c-31 25 -56 62 -56 122c0 124 92 222 224 222c101 0 176 -67 176 -173zM358 225c0 58 -36 99 -94 99c-80 0 -134 -64 -134 -145
c0 -58 36 -99 94 -99c81 0 134 63 134 145zM410 544c0 50 -30 88 -85 88c-75 0 -121 -68 -121 -136c0 -50 29 -88 84 -88c75 0 122 68 122 136z" />
    <glyph glyph-name="nine.lf" 
d="M506 534c0 -68 -23 -116 -78 -199l-222 -335h-106l209 311c-15 -5 -29 -9 -49 -9c-98 0 -159 73 -159 181c0 135 93 235 217 235c136 0 188 -96 188 -184zM410 527c0 62 -34 105 -91 105c-78 0 -121 -75 -121 -146c0 -62 34 -105 91 -105c83 0 121 82 121 146z" />
    <glyph glyph-name="zero.tosf" 
d="M482 440c0 -14 -2 -33 -5 -48l-38 -191c-33 -162 -142 -207 -228 -207c-95 0 -167 59 -167 163c0 14 2 33 5 48l38 191c32 162 141 207 228 207c94 0 167 -59 167 -163zM386 435c0 60 -40 81 -77 81c-50 0 -107 -26 -124 -114l-40 -200c-3 -13 -5 -26 -5 -40
c0 -60 40 -81 77 -81c50 0 107 26 125 118l39 196c2 13 5 26 5 40z" />
    <glyph glyph-name="one.tosf" 
d="M407 597l-120 -597h-96l97 485l-157 -116l22 114l157 114h97z" />
    <glyph glyph-name="two.tosf" 
d="M480 455c0 -78 -52 -134 -138 -207l-190 -162h278l-18 -86h-413l17 86l271 225c70 58 95 91 95 141c0 61 -41 85 -81 85c-48 0 -103 -22 -122 -106h-98c27 140 120 192 228 192s171 -68 171 -168z" />
    <glyph glyph-name="three.tosf" 
d="M472 441c0 -81 -38 -157 -117 -192c47 -23 70 -62 70 -128c0 -129 -95 -243 -235 -243c-122 0 -188 67 -188 163c0 10 1 20 2 32h96c-2 -8 -2 -12 -2 -22c0 -49 31 -87 93 -87c78 0 136 72 136 154c0 56 -30 88 -94 88h-18l17 85h18c74 0 125 68 125 141
c0 53 -31 84 -83 84c-54 0 -104 -38 -121 -102h-98c32 129 117 189 232 189c101 0 167 -67 167 -162z" />
    <glyph glyph-name="four.tosf" 
d="M457 123l-18 -90h-75l-31 -156h-93l31 156h-287l18 90l343 512h107l-342 -512h178l35 174h94l-35 -174h75z" />
    <glyph glyph-name="five.tosf" 
d="M501 597l-17 -87h-276l-39 -191c34 29 68 39 115 39c105 0 151 -74 151 -155c0 -26 -3 -55 -8 -81c-13 -71 -34 -137 -80 -183c-36 -37 -87 -61 -157 -61c-115 0 -169 71 -169 158c0 4 0 18 2 31h93c-1 -7 -1 -14 -1 -20c0 -47 24 -82 78 -82c86 0 120 71 136 157
c4 22 7 48 7 68c0 48 -17 86 -75 86c-52 0 -90 -25 -114 -66h-86l77 387h363z" />
    <glyph glyph-name="six.tosf" 
d="M462 243c0 -131 -87 -249 -229 -249c-145 0 -200 102 -200 199c0 73 28 136 86 215l231 320h107l-223 -302c18 7 38 10 59 10c89 0 169 -62 169 -193zM365 239c0 71 -39 119 -101 119c-85 0 -135 -83 -135 -159c0 -71 40 -119 101 -119c81 0 135 75 135 159z" />
    <glyph glyph-name="seven.tosf" 
d="M533 597l-17 -87l-374 -631h-106l374 631h-222l-21 -107h-93l38 194h421z" />
    <glyph glyph-name="eight.tosf" 
d="M508 545c0 -81 -47 -152 -116 -184c37 -27 65 -67 65 -137c0 -120 -82 -230 -237 -230c-99 0 -186 56 -186 178c0 89 44 161 130 202c-30 25 -56 62 -56 122c0 124 92 222 224 222c101 0 176 -66 176 -173zM359 225c0 58 -36 99 -94 99c-79 0 -134 -64 -134 -145
c0 -58 36 -98 94 -98c81 0 134 62 134 144zM411 543c0 50 -30 88 -85 88c-75 0 -121 -67 -121 -135c0 -50 29 -88 84 -88c76 0 122 68 122 135z" />
    <glyph glyph-name="nine.tosf" 
d="M492 404c0 -73 -28 -136 -86 -215l-231 -320h-107l223 302c-18 -7 -38 -11 -59 -11c-89 0 -169 63 -169 194s87 249 229 249c145 0 200 -102 200 -199zM396 398c0 68 -38 119 -102 119c-80 0 -135 -75 -135 -159c0 -68 38 -119 103 -119c84 0 134 83 134 159z" />
    <glyph glyph-name="uni2007.tosf" 
 />
    <glyph glyph-name="hyphen.case" horiz-adv-x="405" 
d="M356 401l-18 -91h-277l17 91h278z" />
    <glyph glyph-name="exclamdown.case" horiz-adv-x="315" 
d="M231 503l-78 -503h-117l119 503h76zM286 712l-22 -109h-106l21 109h107z" />
    <glyph glyph-name="guillemotleft.case" horiz-adv-x="562" 
d="M544 585l-26 -128l-125 -108l83 -109l-22 -113l-175 230zM304 585l-26 -128l-125 -108l83 -109l-22 -113l-175 230z" />
    <glyph glyph-name="uni00AD.case" horiz-adv-x="405" 
d="M356 401l-18 -91h-277l17 91h278z" />
    <glyph glyph-name="guillemotright.case" horiz-adv-x="562" 
d="M292 355l-265 -228l26 127l125 109l-83 109l22 113zM532 355l-264 -228l26 127l124 109l-82 109l22 113z" />
    <glyph glyph-name="questiondown.case" horiz-adv-x="486" 
d="M406 180c-23 -124 -110 -186 -226 -186c-82 0 -156 57 -156 153c0 65 27 113 71 162l95 108c13 15 25 37 29 55l7 31h97l-8 -38c-8 -38 -21 -66 -52 -100l-94 -105c-29 -32 -48 -62 -48 -104c0 -41 25 -75 74 -75c59 0 101 38 114 99h97zM364 712l-21 -109h-107l21 109
h107z" />
    <glyph glyph-name="endash.case" 
d="M472 401l-18 -90h-409l18 90h409z" />
    <glyph glyph-name="emdash.case" horiz-adv-x="923" 
d="M890 401l-18 -90h-797l18 90h797z" />
    <glyph glyph-name="guilsinglleft.case" horiz-adv-x="322" 
d="M304 585l-26 -128l-125 -108l83 -109l-22 -113l-175 230z" />
    <glyph glyph-name="guilsinglright.case" horiz-adv-x="322" 
d="M292 355l-265 -228l26 127l125 109l-83 109l22 113z" />
    <glyph glyph-name="caroncomma.ss01" horiz-adv-x="254" 
d="M703 734l-25 -123l-104 -75l40 198h89z" />
    <glyph glyph-name="commaaccent.ss01" horiz-adv-x="500" 
d="M260 -116c0 -72 -59 -110 -125 -110h-5l11 53h2c33 0 53 22 53 50c0 22 -16 36 -38 38l11 53c50 -2 91 -36 91 -84z" />
    <glyph glyph-name="commaturn.ss01" horiz-adv-x="500" 
d="M394 763l-11 -53h-2c-33 0 -53 -21 -53 -50c0 -22 16 -36 38 -38l-11 -53c-50 2 -91 36 -91 85c0 73 61 112 130 109z" />
    <glyph glyph-name="exclam.ss01" horiz-adv-x="315" 
d="M323 712l-120 -503h-76l79 503h117zM199 58c0 -34 -28 -61 -62 -61s-61 27 -61 61s27 62 61 62s62 -28 62 -62z" />
    <glyph glyph-name="period.ss01" horiz-adv-x="270" 
d="M167 66c0 -38 -31 -69 -69 -69s-69 31 -69 69s31 69 69 69s69 -31 69 -69z" />
    <glyph glyph-name="colon.ss01" horiz-adv-x="294" 
d="M247 344c0 -38 -31 -69 -69 -69s-68 31 -68 69s30 69 68 69s69 -31 69 -69zM192 66c0 -38 -31 -69 -69 -69s-68 31 -68 69s30 69 68 69s69 -31 69 -69z" />
    <glyph glyph-name="semicolon.ss01" horiz-adv-x="294" 
d="M191 116l-35 -176l-129 -95l54 271h110zM246 344c0 -38 -31 -69 -69 -69s-69 31 -69 69s31 69 69 69s69 -31 69 -69z" />
    <glyph glyph-name="question.ss01" horiz-adv-x="486" 
d="M504 565c0 -65 -28 -113 -72 -162l-95 -108c-13 -15 -25 -37 -29 -55l-6 -31h-97l8 38c8 38 20 66 51 100l94 105c29 32 48 63 48 105c0 41 -25 74 -74 74c-59 0 -101 -38 -114 -99h-97c23 124 110 186 226 186c82 0 157 -57 157 -153zM289 58c0 -34 -27 -61 -61 -61
s-62 27 -62 61s28 62 62 62s61 -28 61 -62z" />
    <glyph glyph-name="at.ss01" horiz-adv-x="950" 
d="M906 329c0 -159 -123 -297 -297 -297h-81l11 53c-34 -39 -70 -59 -118 -59c-85 0 -140 52 -140 138c0 26 4 58 10 89c16 82 36 143 83 184c37 32 79 43 119 43c59 0 92 -27 109 -60l11 54h90l-76 -380c125 5 201 116 201 235c0 173 -126 287 -306 287
c-205 0 -367 -162 -367 -368c0 -221 143 -369 373 -369h62l-14 -67h-61c-262 0 -442 184 -442 436c0 249 197 441 449 441c229 0 384 -148 384 -360zM575 321c0 56 -34 79 -71 79c-25 0 -51 -10 -69 -27c-23 -22 -40 -55 -53 -120c-5 -23 -7 -48 -7 -68c0 -56 33 -79 70 -79
c26 0 52 11 70 28c23 22 40 56 52 120c5 23 8 47 8 67z" />
    <glyph glyph-name="C.ss01" horiz-adv-x="549" 
d="M565 631l-76 -65c-32 42 -63 62 -112 62c-47 0 -84 -18 -113 -50c-35 -37 -49 -83 -78 -222c-15 -76 -22 -126 -22 -159c0 -68 49 -113 115 -113c57 0 97 26 133 62l60 -73c-52 -49 -114 -79 -198 -79c-129 0 -214 81 -214 197c0 30 5 76 23 165c33 161 51 226 109 285
c49 50 117 77 190 77c86 0 138 -30 183 -87z" />
    <glyph glyph-name="G.ss01" horiz-adv-x="612" 
d="M578 620l-78 -65c-31 43 -63 73 -120 73c-49 0 -88 -21 -116 -50c-38 -39 -52 -92 -78 -222c-16 -78 -22 -126 -22 -159c0 -77 57 -113 115 -113c69 0 148 49 172 168l9 45h-145l16 86h248l-21 -107c-18 -93 -43 -152 -94 -203c-48 -48 -114 -79 -192 -79
c-130 0 -212 83 -212 197c0 37 6 85 23 165c35 170 49 225 106 283c49 50 119 79 197 79c93 0 148 -38 192 -98z" />
    <glyph glyph-name="a.ss01" horiz-adv-x="532" 
d="M506 507l-101 -507h-94l12 58c-33 -41 -77 -64 -133 -64c-98 0 -148 64 -148 151c0 27 3 58 13 109c20 101 45 168 88 208c42 38 88 51 134 51c63 0 102 -28 123 -68l12 62h94zM369 339c0 55 -30 88 -79 88c-31 0 -59 -13 -79 -33c-27 -27 -44 -66 -59 -140
c-6 -29 -11 -64 -11 -86c0 -55 31 -88 80 -88c31 0 59 13 79 33c27 27 44 67 59 141c6 29 10 63 10 85z" />
    <glyph glyph-name="i.ss01" horiz-adv-x="251" 
d="M226 507l-102 -507h-97l102 507h97zM271 672c0 -35 -30 -64 -64 -64c-35 0 -63 29 -63 63c0 35 29 64 63 64c35 0 64 -29 64 -63z" />
    <glyph glyph-name="j.ss01" horiz-adv-x="251" 
d="M226 507l-116 -577c-18 -88 -70 -138 -155 -138h-64l16 83h39c39 0 61 22 69 64l114 568h97zM271 672c0 -35 -30 -64 -64 -64c-35 0 -63 29 -63 63c0 35 29 64 63 64c35 0 64 -29 64 -63z" />
    <glyph glyph-name="exclamdown.ss01" horiz-adv-x="315" 
d="M189 298l-78 -503h-117l119 503h76zM240 449c0 -34 -27 -62 -61 -62s-61 28 -61 62s27 61 61 61s61 -27 61 -61z" />
    <glyph glyph-name="dieresis.ss01" horiz-adv-x="475" 
d="M498 651c0 -30 -25 -55 -55 -55s-55 25 -55 55s25 55 55 55s55 -25 55 -55zM290 651c0 -30 -25 -55 -55 -55s-55 25 -55 55s25 55 55 55s55 -25 55 -55z" />
    <glyph glyph-name="ordfeminine.ss01" horiz-adv-x="444" 
d="M465 712l-80 -405h-76l9 45c-27 -35 -65 -50 -108 -50c-61 0 -118 39 -118 121c0 22 4 49 11 87c16 81 36 134 70 166c33 31 71 41 107 41c47 0 80 -18 100 -53l9 48h76zM354 577c0 44 -25 68 -63 68c-30 0 -50 -13 -62 -24c-24 -23 -37 -62 -47 -111
c-4 -22 -8 -50 -8 -68c0 -44 25 -68 63 -68c30 0 50 13 62 25c24 23 38 63 47 111c4 22 8 49 8 67z" />
    <glyph glyph-name="periodcentered.ss01" horiz-adv-x="270" 
d="M209 276c0 -38 -31 -69 -69 -69s-69 31 -69 69s31 69 69 69s69 -31 69 -69z" />
    <glyph glyph-name="cedilla.ss01" horiz-adv-x="500" 
d="M260 -116c0 -72 -59 -110 -124 -110h-6l11 53h2c33 0 53 22 53 50c0 22 -16 36 -38 38l11 53c50 -2 91 -36 91 -84z" />
    <glyph glyph-name="questiondown.ss01" horiz-adv-x="486" 
d="M366 -25c-23 -124 -110 -186 -226 -186c-82 0 -156 57 -156 153c0 65 27 113 71 162l95 108c13 15 25 37 29 55l7 31h97l-8 -38c-8 -38 -21 -66 -52 -100l-94 -105c-29 -32 -48 -62 -48 -104c0 -41 25 -75 74 -75c59 0 101 38 114 99h97zM321 449c0 -34 -27 -62 -61 -62
s-62 28 -62 62s28 61 62 61s61 -27 61 -61z" />
    <glyph glyph-name="Adieresis.ss01" horiz-adv-x="594" 
d="M537 0h-105l-18 146h-268l-77 -146h-111l390 712h83zM405 231l-43 327l-173 -327h216zM570 833c0 -30 -25 -55 -55 -55s-55 25 -55 55s25 55 55 55s55 -25 55 -55zM362 833c0 -30 -25 -55 -55 -55s-55 25 -55 55s25 55 55 55s55 -25 55 -55z" />
    <glyph glyph-name="Ccedilla.ss01" horiz-adv-x="549" 
d="M565 631l-76 -65c-32 42 -63 62 -112 62c-47 0 -84 -18 -113 -50c-35 -37 -49 -83 -78 -222c-15 -76 -22 -126 -22 -159c0 -68 49 -113 115 -113c57 0 97 26 133 62l60 -73c-52 -49 -114 -79 -198 -79c-129 0 -214 81 -214 197c0 30 5 76 23 165c33 161 51 226 109 285
c49 50 117 77 190 77c86 0 138 -30 183 -87zM307 -116c0 -72 -59 -110 -124 -110h-6l11 53h2c33 0 53 22 53 50c0 22 -16 36 -38 38l11 53c50 -2 91 -36 91 -84z" />
    <glyph glyph-name="Edieresis.ss01" horiz-adv-x="575" 
d="M613 712l-18 -90h-329l-43 -218h282l-18 -90h-282l-45 -224h335l-18 -90h-439l143 712h432zM571 833c0 -30 -25 -55 -55 -55s-55 25 -55 55s25 55 55 55s55 -25 55 -55zM363 833c0 -30 -25 -55 -55 -55s-55 25 -55 55s25 55 55 55s55 -25 55 -55z" />
    <glyph glyph-name="Idieresis.ss01" horiz-adv-x="279" 
d="M284 712l-143 -712h-103l143 712h103zM415 833c0 -30 -25 -55 -55 -55s-55 25 -55 55s25 55 55 55s55 -25 55 -55zM207 833c0 -30 -25 -55 -55 -55s-55 25 -55 55s25 55 55 55s55 -25 55 -55z" />
    <glyph glyph-name="Odieresis.ss01" horiz-adv-x="614" 
d="M592 521c0 -31 -4 -76 -22 -165c-30 -149 -47 -220 -106 -282c-51 -54 -121 -80 -197 -80c-126 0 -206 83 -206 197c0 31 4 76 22 165c30 149 47 220 106 282c51 54 121 80 196 80c127 0 207 -83 207 -197zM489 513c0 76 -52 115 -110 115c-48 0 -85 -18 -116 -51
s-49 -81 -77 -221c-15 -76 -22 -124 -22 -157c0 -76 52 -115 110 -115c48 0 85 18 116 51s49 81 77 221c15 76 22 124 22 157zM578 833c0 -30 -25 -55 -55 -55s-55 25 -55 55s25 55 55 55s55 -25 55 -55zM370 833c0 -30 -25 -55 -55 -55s-55 25 -55 55s25 55 55 55
s55 -25 55 -55z" />
    <glyph glyph-name="Udieresis.ss01" horiz-adv-x="642" 
d="M656 712l-95 -473c-33 -165 -145 -245 -281 -245c-108 0 -208 68 -208 198c0 20 4 47 7 62l91 458h103l-93 -466c-2 -12 -5 -32 -5 -48c0 -56 31 -113 112 -113c83 0 152 56 174 166l92 461h103zM595 833c0 -30 -25 -55 -55 -55s-55 25 -55 55s25 55 55 55s55 -25 55 -55
zM387 833c0 -30 -25 -55 -55 -55s-55 25 -55 55s25 55 55 55s55 -25 55 -55z" />
    <glyph glyph-name="agrave.ss01" horiz-adv-x="532" 
d="M506 507l-101 -507h-94l12 58c-33 -41 -77 -64 -133 -64c-98 0 -148 64 -148 151c0 27 3 58 13 109c20 101 45 168 88 208c42 38 88 51 134 51c63 0 102 -28 123 -68l12 62h94zM369 339c0 55 -30 88 -79 88c-31 0 -59 -13 -79 -33c-27 -27 -44 -66 -59 -140
c-6 -29 -11 -64 -11 -86c0 -55 31 -88 80 -88c31 0 59 13 79 33c27 27 44 67 59 141c6 29 10 63 10 85zM353 595h-77l-71 159h97z" />
    <glyph glyph-name="aacute.ss01" horiz-adv-x="532" 
d="M506 507l-101 -507h-94l12 58c-33 -41 -77 -64 -133 -64c-98 0 -148 64 -148 151c0 27 3 58 13 109c20 101 45 168 88 208c42 38 88 51 134 51c63 0 102 -28 123 -68l12 62h94zM369 339c0 55 -30 88 -79 88c-31 0 -59 -13 -79 -33c-27 -27 -44 -66 -59 -140
c-6 -29 -11 -64 -11 -86c0 -55 31 -88 80 -88c31 0 59 13 79 33c27 27 44 67 59 141c6 29 10 63 10 85zM478 754l-130 -159h-84l114 159h100z" />
    <glyph glyph-name="acircumflex.ss01" horiz-adv-x="532" 
d="M506 507l-101 -507h-94l12 58c-33 -41 -77 -64 -133 -64c-98 0 -148 64 -148 151c0 27 3 58 13 109c20 101 45 168 88 208c42 38 88 51 134 51c63 0 102 -28 123 -68l12 62h94zM369 339c0 55 -30 88 -79 88c-31 0 -59 -13 -79 -33c-27 -27 -44 -66 -59 -140
c-6 -29 -11 -64 -11 -86c0 -55 31 -88 80 -88c31 0 59 13 79 33c27 27 44 67 59 141c6 29 10 63 10 85zM477 594h-77l-62 101l-104 -101h-85l155 162h82z" />
    <glyph glyph-name="atilde.ss01" horiz-adv-x="532" 
d="M506 507l-101 -507h-94l12 58c-33 -41 -77 -64 -133 -64c-98 0 -148 64 -148 151c0 27 3 58 13 109c20 101 45 168 88 208c42 38 88 51 134 51c63 0 102 -28 123 -68l12 62h94zM369 339c0 55 -30 88 -79 88c-31 0 -59 -13 -79 -33c-27 -27 -44 -66 -59 -140
c-6 -29 -11 -64 -11 -86c0 -55 31 -88 80 -88c31 0 59 13 79 33c27 27 44 67 59 141c6 29 10 63 10 85zM490 654c-36 -34 -66 -50 -104 -50c-59 0 -91 41 -125 41c-23 0 -40 -11 -62 -32l-38 49c36 34 66 50 104 50c59 0 91 -41 125 -41c23 0 41 11 62 32z" />
    <glyph glyph-name="adieresis.ss01" horiz-adv-x="532" 
d="M506 507l-101 -507h-94l12 58c-33 -41 -77 -64 -133 -64c-98 0 -148 64 -148 151c0 27 3 58 13 109c20 101 45 168 88 208c42 38 88 51 134 51c63 0 102 -28 123 -68l12 62h94zM369 339c0 55 -30 88 -79 88c-31 0 -59 -13 -79 -33c-27 -27 -44 -66 -59 -140
c-6 -29 -11 -64 -11 -86c0 -55 31 -88 80 -88c31 0 59 13 79 33c27 27 44 67 59 141c6 29 10 63 10 85zM491 651c0 -30 -25 -55 -55 -55s-55 25 -55 55s25 55 55 55s55 -25 55 -55zM283 651c0 -30 -25 -55 -55 -55s-55 25 -55 55s25 55 55 55s55 -25 55 -55z" />
    <glyph glyph-name="aring.ss01" horiz-adv-x="532" 
d="M506 507l-101 -507h-94l12 58c-33 -41 -77 -64 -133 -64c-98 0 -148 64 -148 151c0 27 3 58 13 109c20 101 45 168 88 208c42 38 88 51 134 51c63 0 102 -28 123 -68l12 62h94zM369 339c0 55 -30 88 -79 88c-31 0 -59 -13 -79 -33c-27 -27 -44 -66 -59 -140
c-6 -29 -11 -64 -11 -86c0 -55 31 -88 80 -88c31 0 59 13 79 33c27 27 44 67 59 141c6 29 10 63 10 85zM456 698c0 -69 -56 -123 -123 -123s-122 54 -122 123s55 122 122 122s123 -53 123 -122zM398 698c0 35 -30 64 -65 64c-34 0 -64 -29 -64 -64c0 -34 30 -64 64 -64
c35 0 65 30 65 64z" />
    <glyph glyph-name="ae.ss01" horiz-adv-x="826" 
d="M782 336c0 -30 -6 -70 -14 -110h-317c-3 -16 -5 -31 -5 -49c0 -58 33 -101 100 -101c54 0 92 20 131 56l53 -64c-53 -50 -117 -74 -192 -74c-59 0 -107 18 -136 73l-13 -67h-71l13 61c-28 -37 -71 -67 -140 -67c-78 0 -149 49 -149 156c0 25 4 65 12 104
c22 113 49 171 89 208c39 36 84 51 135 51c63 0 103 -26 125 -69l13 63h70l-12 -61c36 49 78 67 140 67c83 0 168 -59 168 -177zM374 335c0 61 -35 92 -82 92c-38 0 -65 -18 -81 -33c-30 -29 -48 -78 -60 -140c-6 -32 -10 -60 -10 -82c0 -61 35 -92 82 -92c39 0 66 18 82 34
c29 30 47 79 59 140c6 29 10 60 10 81zM689 336c0 65 -37 97 -85 97c-63 0 -114 -42 -140 -140h221c2 13 4 27 4 43z" />
    <glyph glyph-name="ccedilla.ss01" horiz-adv-x="462" 
d="M457 440l-73 -63c-23 33 -48 50 -85 50c-32 0 -64 -13 -91 -41c-32 -33 -51 -83 -60 -132c-5 -25 -7 -46 -7 -71c0 -69 38 -103 90 -103c41 0 73 16 106 51l55 -70c-46 -44 -106 -67 -169 -67c-108 0 -179 71 -179 182c0 23 2 52 7 78c35 188 141 259 258 259
c72 0 117 -30 148 -73zM260 -116c0 -72 -59 -110 -124 -110h-6l11 53h2c33 0 53 22 53 50c0 22 -16 36 -38 38l11 53c50 -2 91 -36 91 -84z" />
    <glyph glyph-name="edieresis.ss01" horiz-adv-x="514" 
d="M470 336c0 -30 -6 -71 -15 -110h-314c-3 -16 -5 -32 -5 -49c0 -58 30 -101 97 -101c54 0 92 20 131 56l54 -64c-53 -50 -118 -74 -194 -74c-94 0 -181 51 -181 177c0 161 77 342 254 342c108 0 173 -74 173 -177zM377 336c0 65 -37 97 -85 97c-62 0 -113 -43 -139 -140
h220c2 15 4 27 4 43zM501 651c0 -30 -25 -55 -55 -55s-55 25 -55 55s25 55 55 55s55 -25 55 -55zM293 651c0 -30 -25 -55 -55 -55s-55 25 -55 55s25 55 55 55s55 -25 55 -55z" />
    <glyph glyph-name="idieresis.ss01" horiz-adv-x="251" 
d="M225 507l-101 -507h-97l101 507h97zM362 651c0 -30 -25 -55 -55 -55s-55 25 -55 55s25 55 55 55s55 -25 55 -55zM154 651c0 -30 -25 -55 -55 -55s-55 25 -55 55s25 55 55 55s55 -25 55 -55z" />
    <glyph glyph-name="odieresis.ss01" horiz-adv-x="508" 
d="M464 346c0 -31 -5 -70 -9 -92c-22 -109 -50 -164 -93 -203c-41 -38 -91 -57 -151 -57c-83 0 -167 48 -167 167c0 31 5 71 9 93c22 109 50 163 93 202c41 38 91 57 151 57c83 0 167 -48 167 -167zM368 337c0 63 -35 90 -80 90c-30 0 -58 -12 -78 -32
c-27 -27 -45 -69 -60 -141c-8 -41 -10 -68 -10 -83c0 -64 36 -91 80 -91c30 0 58 12 78 32c27 27 45 67 60 142c8 41 10 67 10 83zM498 651c0 -30 -25 -55 -55 -55s-55 25 -55 55s25 55 55 55s55 -25 55 -55zM290 651c0 -30 -25 -55 -55 -55s-55 25 -55 55s25 55 55 55
s55 -25 55 -55z" />
    <glyph glyph-name="divide.ss01" 
d="M363 468c0 -38 -31 -69 -69 -69s-69 31 -69 69s31 69 69 69s69 -31 69 -69zM475 323l-18 -91h-415l19 91h414zM293 87c0 -38 -31 -69 -69 -69s-68 31 -68 69s30 70 68 70s69 -32 69 -70z" />
    <glyph glyph-name="udieresis.ss01" horiz-adv-x="540" 
d="M513 507l-101 -507h-94l10 52c-33 -36 -81 -58 -141 -58c-68 0 -134 45 -134 142c0 16 2 37 5 53l64 318h97l-62 -311c-3 -15 -5 -28 -5 -40c0 -52 35 -76 76 -76c35 0 106 17 126 118l62 309h97zM511 651c0 -30 -25 -55 -55 -55s-55 25 -55 55s25 55 55 55
s55 -25 55 -55zM303 651c0 -30 -25 -55 -55 -55s-55 25 -55 55s25 55 55 55s55 -25 55 -55z" />
    <glyph glyph-name="ydieresis.ss01" horiz-adv-x="444" 
d="M489 507l-327 -608c-15 -27 -29 -46 -43 -60c-29 -28 -63 -40 -112 -40h-40l18 87h25c42 0 56 17 79 60l42 78l-73 483h97l44 -367l186 367h104zM462 651c0 -30 -25 -55 -55 -55s-55 25 -55 55s25 55 55 55s55 -25 55 -55zM254 651c0 -30 -25 -55 -55 -55s-55 25 -55 55
s25 55 55 55s55 -25 55 -55z" />
    <glyph glyph-name="ij.ss01" horiz-adv-x="502" 
d="M477 507l-116 -577c-18 -88 -70 -138 -155 -138h-64l16 83h39c39 0 61 22 69 64l114 568h97zM522 672c0 -35 -30 -64 -64 -64c-35 0 -63 29 -63 63c0 35 29 64 63 64c35 0 64 -29 64 -63zM226 507l-102 -507h-97l102 507h97zM271 672c0 -35 -30 -64 -64 -64
c-35 0 -63 29 -63 63c0 35 29 64 63 64c35 0 64 -29 64 -63z" />
    <glyph glyph-name="Ydieresis.ss01" horiz-adv-x="521" 
d="M605 712l-284 -423l-58 -289h-103l59 294l-125 418h109l85 -319l204 319h113zM537 833c0 -30 -25 -55 -55 -55s-55 25 -55 55s25 55 55 55s55 -25 55 -55zM329 833c0 -30 -25 -55 -55 -55s-55 25 -55 55s25 55 55 55s55 -25 55 -55z" />
    <glyph glyph-name="dotaccent.ss01" horiz-adv-x="475" 
d="M375 661c0 -30 -25 -55 -55 -55s-55 25 -55 54c0 31 25 55 55 55s55 -24 55 -54z" />
    <glyph glyph-name="ogonek.ss01" horiz-adv-x="486" 
d="M271 -33l-11 -53h-2c-34 0 -53 -22 -53 -50c0 -22 16 -36 38 -38l-11 -53c-50 2 -91 36 -91 85c0 70 58 109 123 109h7z" />
    <glyph glyph-name="ellipsis.ss01" horiz-adv-x="762" 
d="M661 66c0 -38 -31 -69 -69 -69s-69 31 -69 69s31 69 69 69s69 -31 69 -69zM414 66c0 -38 -31 -69 -69 -69s-69 31 -69 69s31 69 69 69s69 -31 69 -69zM167 66c0 -38 -31 -69 -69 -69s-69 31 -69 69s31 69 69 69s69 -31 69 -69z" />
    <glyph glyph-name="Euro.ss01" horiz-adv-x="590" 
d="M605 631l-76 -65c-32 42 -63 62 -112 62c-45 0 -81 -17 -112 -49c-26 -27 -40 -59 -54 -115h179l-12 -63h-183l-17 -86h186l-12 -63h-183c-4 -27 -5 -42 -5 -56c0 -67 49 -112 115 -112c56 0 96 24 133 62l60 -73c-51 -49 -114 -79 -198 -79c-129 0 -213 82 -213 198
c0 14 0 32 4 60h-64l12 63h62l17 86h-65l12 63h67c21 88 44 134 86 177c49 50 118 77 190 77c86 0 138 -30 183 -87z" />
    <glyph glyph-name="dotmath.ss01" horiz-adv-x="270" 
d="M209 276c0 -38 -31 -69 -69 -69s-69 31 -69 69s31 69 69 69s69 -31 69 -69z" />
    <glyph glyph-name="fi.ss01" horiz-adv-x="555" 
d="M378 717l-17 -82h-40c-35 0 -59 -19 -67 -61l-14 -67h97l-15 -74h-96l-87 -433h-97l87 433h-55l14 74h55l16 76c20 96 79 134 156 134h63zM530 507l-102 -507h-97l102 507h97zM575 672c0 -35 -30 -64 -64 -64c-35 0 -63 29 -63 63c0 35 29 64 63 64c35 0 64 -29 64 -63z
" />
    <glyph glyph-name="exclamdown.case.ss01" horiz-adv-x="315" 
d="M229 503l-78 -503h-117l119 503h76zM280 654c0 -34 -27 -62 -61 -62s-61 28 -61 62s27 61 61 61s61 -27 61 -61z" />
    <glyph glyph-name="questiondown.case.ss01" horiz-adv-x="486" 
d="M406 180c-23 -124 -110 -186 -226 -186c-82 0 -156 57 -156 153c0 65 27 113 71 162l95 108c13 15 25 37 29 55l7 31h97l-8 -38c-8 -38 -21 -66 -52 -100l-94 -105c-29 -32 -48 -62 -48 -104c0 -41 25 -75 74 -75c59 0 101 38 114 99h97zM361 654c0 -34 -27 -62 -61 -62
s-62 28 -62 62s28 61 62 61s61 -27 61 -61z" />
    <glyph glyph-name="dieresis.lc.ss01" horiz-adv-x="508" 
d="M498 651c0 -30 -25 -55 -55 -55s-55 25 -55 55s25 55 55 55s55 -25 55 -55zM290 651c0 -30 -25 -55 -55 -55s-55 25 -55 55s25 55 55 55s55 -25 55 -55z" />
    <glyph glyph-name="dotaccent.lc.ss01" horiz-adv-x="508" 
d="M290 655c0 -31 -24 -55 -54 -55c-31 0 -55 24 -55 54c0 31 24 55 54 55c31 0 55 -24 55 -54z" />
    <glyph glyph-name="diedot.lc.ss01" horiz-adv-x="496" 
d="M387 659c0 -31 -25 -55 -55 -55s-55 24 -55 54c0 31 25 55 55 55s55 -24 55 -54z" />
    <glyph glyph-name="dieresis.uc.ss01" horiz-adv-x="614" 
d="M578 833c0 -30 -25 -55 -55 -55s-55 25 -55 55s25 55 55 55s55 -25 55 -55zM370 833c0 -30 -25 -55 -55 -55s-55 25 -55 55s25 55 55 55s55 -25 55 -55z" />
    <glyph glyph-name="dotaccent.uc.ss01" horiz-adv-x="475" 
d="M467 841c0 -31 -25 -56 -55 -56s-55 25 -55 55s25 55 55 55s55 -25 55 -54z" />
    <glyph glyph-name="diedot.uc.ss01" horiz-adv-x="614" 
d="M366 837c0 -31 -25 -56 -55 -56s-55 25 -55 55s25 55 55 55s55 -25 55 -54z" />
    <glyph glyph-name="caroncomma" horiz-adv-x="496" 
d="M731 730l-86 -159h-75l68 159h93z" />
    <glyph glyph-name="commaaccent" horiz-adv-x="262" 
d="M248 -61l-77 -145h-95l90 145h82z" />
    <glyph glyph-name="commaturn" horiz-adv-x="401" 
d="M481 754l-130 -159h-84l114 159h100z" />
    <glyph glyph-name="breveCyrLc.comp" horiz-adv-x="498" 
d="M489 709c-20 -99 -83 -132 -165 -132c-88 0 -132 45 -132 106c0 7 0 15 1 26h76c-1 -9 -1 -14 -1 -18c0 -32 24 -52 62 -52c43 0 70 23 81 70h78z" />
    <glyph glyph-name="breveCyrUc.comp" horiz-adv-x="498" 
d="M583 893c-20 -99 -83 -132 -165 -132c-88 0 -132 45 -132 106c0 7 0 15 1 26h76c-1 -9 -1 -14 -1 -18c0 -32 24 -52 62 -52c43 0 70 23 81 70h78z" />
    <glyph glyph-name="grave.lc" horiz-adv-x="508" 
d="M360 595h-77l-71 159h97z" />
    <glyph glyph-name="dieresis.lc" horiz-adv-x="508" 
d="M491 705l-21 -106h-88l21 106h88zM286 705l-21 -106h-88l21 106h88z" />
    <glyph glyph-name="macron.lc" horiz-adv-x="508" 
d="M488 684l-14 -69h-294l14 69h294z" />
    <glyph glyph-name="acute.lc" horiz-adv-x="508" 
d="M485 754l-130 -159h-84l114 159h100z" />
    <glyph glyph-name="circumflex.lc" horiz-adv-x="508" 
d="M484 594h-77l-62 101l-104 -101h-85l155 162h82z" />
    <glyph glyph-name="caron.lc" horiz-adv-x="508" 
d="M515 756l-155 -162h-82l-91 162h77l62 -100l104 100h85z" />
    <glyph glyph-name="breve.lc" horiz-adv-x="508" 
d="M487 720c-21 -96 -75 -134 -161 -134c-82 0 -129 41 -129 107c0 7 0 14 2 27h69c-1 -9 -1 -13 -1 -17c0 -32 27 -48 66 -48c45 0 74 19 84 65h70z" />
    <glyph glyph-name="dotaccent.lc" horiz-adv-x="508" 
d="M389 701l-18 -94h-91l19 94h90z" />
    <glyph glyph-name="ring.lc" horiz-adv-x="508" 
d="M459 698c0 -69 -56 -123 -123 -123s-122 54 -122 123s55 122 122 122s123 -53 123 -122zM401 698c0 35 -30 64 -65 64c-34 0 -64 -29 -64 -64c0 -34 30 -64 64 -64c35 0 65 30 65 64z" />
    <glyph glyph-name="tilde.lc" horiz-adv-x="508" 
d="M497 654c-36 -34 -66 -50 -104 -50c-59 0 -91 41 -125 41c-23 0 -40 -11 -62 -32l-38 49c36 34 66 50 104 50c59 0 91 -41 125 -41c23 0 41 11 62 32z" />
    <glyph glyph-name="hungarumlaut.lc" horiz-adv-x="508" 
d="M402 754l-130 -159h-84l114 159h100zM578 754l-129 -159h-84l113 159h100z" />
    <glyph glyph-name="diedot.lc" horiz-adv-x="508" 
d="M286 705l-21 -106h-88l21 106h88z" />
    <glyph glyph-name="grave.uc" horiz-adv-x="547" 
d="M440 777h-77l-71 159h97z" />
    <glyph glyph-name="dieresis.uc" horiz-adv-x="614" 
d="M572 887l-21 -105h-88l21 105h88zM366 887l-20 -105h-88l21 105h87z" />
    <glyph glyph-name="macron.uc" horiz-adv-x="487" 
d="M272 863h294l-14 -68h-294z" />
    <glyph glyph-name="acute.uc" horiz-adv-x="547" 
d="M565 936l-130 -159h-84l114 159h100z" />
    <glyph glyph-name="circumflex.uc" horiz-adv-x="547" 
d="M564 776h-77l-62 100l-104 -100h-85l155 162h82z" />
    <glyph glyph-name="caron.uc" horiz-adv-x="508" 
d="M595 938l-155 -162h-82l-92 162h78l62 -101l104 101h85z" />
    <glyph glyph-name="breve.uc" horiz-adv-x="498" 
d="M572 906c-21 -96 -75 -134 -161 -134c-82 0 -129 41 -129 107c0 7 0 14 2 27h69c-1 -9 -1 -13 -1 -17c0 -32 27 -48 66 -48c45 0 74 19 84 65h70z" />
    <glyph glyph-name="dotaccent.uc" horiz-adv-x="487" 
d="M379 883h91l-19 -94h-91z" />
    <glyph glyph-name="ring.uc" horiz-adv-x="475" 
d="M536 870c0 -69 -55 -123 -122 -123s-122 54 -122 123s55 122 122 122s122 -53 122 -122zM479 870c0 35 -31 64 -65 64s-64 -29 -64 -64s30 -64 64 -64s65 29 65 64z" />
    <glyph glyph-name="tilde.uc" horiz-adv-x="547" 
d="M577 839c-36 -34 -66 -50 -104 -50c-59 0 -91 41 -125 41c-23 0 -40 -11 -62 -32l-38 49c36 34 66 50 104 50c59 0 91 -41 125 -41c23 0 41 11 62 32z" />
    <glyph glyph-name="hungarumlaut.uc" horiz-adv-x="487" 
d="M482 936l-130 -159h-84l114 159h100zM658 936l-129 -159h-84l113 159h100z" />
    <glyph glyph-name="diedot.uc" horiz-adv-x="614" 
d="M366 887l-20 -105h-88l21 105h87z" />
    </font>
</defs>
</svg>
